<svg xmlns="http://www.w3.org/2000/svg" width="960" height="960" viewBox="0 0 960 960"><title>Environment atlas</title><desc>Six biome rows by six runtime tile and prop classes.</desc><metadata>Black Horizon: Cinder Protocol production atlas v3. Fixed cell grid; no labels embedded in cells.</metadata><defs><pattern id="grain" width="32" height="32" patternUnits="userSpaceOnUse"><circle cx="4" cy="6" r="2" fill="#000" opacity=".12"/><circle cx="23" cy="17" r="1.5" fill="#000" opacity=".09"/><path d="M2 29L13 22M26 4L31 1" stroke="#000" opacity=".11"/></pattern><g id="ground"><path d="M9 116L41 82L57 100L89 62L112 78L151 41M18 32L52 48L70 31M101 119L131 100L149 111" fill="none" stroke="#111" stroke-width="2" opacity=".35"/></g><g id="rock"><path d="M25 121L42 67L78 31L119 65L139 121Z" fill="currentColor" stroke="#071018" stroke-width="5"/><path d="M42 67L78 31L78 108Z" fill="#f1c27c" opacity=".55"/></g><g id="feature"><rect x="35" y="63" width="90" height="63" rx="7" fill="currentColor" stroke="#071018" stroke-width="5"/><path d="M45 80H115M45 101H115" stroke="#ffd45a" stroke-width="4"/></g><g id="palms"><path d="M40 127L45 57M80 127L84 49M120 127L116 58" stroke="#4a3525" stroke-width="9"/><path d="M20 56L45 40L69 57L45 62ZM57 48L84 31L110 48L84 55ZM91 58L116 41L143 57L116 64Z" fill="#537847"/></g><g id="vehicle"><rect x="20" y="64" width="120" height="57" rx="12" fill="#3b474d" stroke="#071018" stroke-width="5"/><rect x="52" y="43" width="61" height="40" rx="8" fill="#52616a" stroke="#071018" stroke-width="5"/><path d="M83 48L133 33" stroke="#252b2e" stroke-width="9"/><circle cx="43" cy="120" r="20" fill="#171c1f" stroke="#071018" stroke-width="4"/><circle cx="118" cy="120" r="20" fill="#171c1f" stroke="#071018" stroke-width="4"/></g><g id="structure"><rect x="28" y="32" width="104" height="102" rx="5" fill="#4e5a5e" stroke="#071018" stroke-width="5"/><rect x="42" y="49" width="76" height="75" fill="#273337" stroke="#071018" stroke-width="3"/><g fill="#ff8a2f" stroke="#ffd45a"><rect x="49" y="56" width="12" height="10"/><rect x="72" y="56" width="12" height="10"/><rect x="95" y="56" width="12" height="10"/><rect x="49" y="79" width="12" height="10"/><rect x="72" y="79" width="12" height="10"/><rect x="95" y="79" width="12" height="10"/><rect x="49" y="102" width="12" height="10"/><rect x="72" y="102" width="12" height="10"/><rect x="95" y="102" width="12" height="10"/></g></g><g id="barrier"><rect x="13" y="77" width="134" height="51" rx="7" fill="#676c6d" stroke="#071018" stroke-width="5"/><path d="M22 86H39L27 119H10ZM48 86H65L53 119H36ZM74 86H91L79 119H62ZM100 86H117L105 119H88ZM126 86H143L131 119H114Z" fill="#ff7a2f"/></g></defs><g transform="translate(0 0)" color="#c8874b"><rect width="160" height="160" fill="#8a5b35"/><rect width="160" height="160" fill="url(#grain)"/><use href="#ground"/></g><g transform="translate(160 0)" color="#c8874b"><rect width="160" height="160" fill="#8a5b35"/><rect width="160" height="160" fill="url(#grain)"/><use href="#rock"/></g><g transform="translate(320 0)" color="#c8874b"><rect width="160" height="160" fill="#8a5b35"/><rect width="160" height="160" fill="url(#grain)"/><use href="#feature"/></g><g transform="translate(480 0)" color="#c8874b"><rect width="160" height="160" fill="#8a5b35"/><rect width="160" height="160" fill="url(#grain)"/><use href="#vehicle"/></g><g transform="translate(640 0)" color="#c8874b"><rect width="160" height="160" fill="#8a5b35"/><rect width="160" height="160" fill="url(#grain)"/><use href="#structure"/></g><g transform="translate(800 0)" color="#c8874b"><rect width="160" height="160" fill="#8a5b35"/><rect width="160" height="160" fill="url(#grain)"/><use href="#barrier"/></g><g transform="translate(0 160)" color="#55744a"><rect width="160" height="160" fill="#9a7a4c"/><rect width="160" height="160" fill="url(#grain)"/><use href="#ground"/></g><g transform="translate(160 160)" color="#55744a"><rect width="160" height="160" fill="#9a7a4c"/><rect width="160" height="160" fill="url(#grain)"/><use href="#rock"/></g><g transform="translate(320 160)" color="#55744a"><rect width="160" height="160" fill="#9a7a4c"/><rect width="160" height="160" fill="url(#grain)"/><use href="#palms"/></g><g transform="translate(480 160)" color="#55744a"><rect width="160" height="160" fill="#9a7a4c"/><rect width="160" height="160" fill="url(#grain)"/><use href="#vehicle"/></g><g transform="translate(640 160)" color="#55744a"><rect width="160" height="160" fill="#9a7a4c"/><rect width="160" height="160" fill="url(#grain)"/><use href="#structure"/></g><g transform="translate(800 160)" color="#55744a"><rect width="160" height="160" fill="#9a7a4c"/><rect width="160" height="160" fill="url(#grain)"/><use href="#barrier"/></g><g transform="translate(0 320)" color="#827665"><rect width="160" height="160" fill="#59544d"/><rect width="160" height="160" fill="url(#grain)"/><use href="#ground"/></g><g transform="translate(160 320)" color="#827665"><rect width="160" height="160" fill="#59544d"/><rect width="160" height="160" fill="url(#grain)"/><use href="#rock"/></g><g transform="translate(320 320)" color="#827665"><rect width="160" height="160" fill="#59544d"/><rect width="160" height="160" fill="url(#grain)"/><use href="#feature"/></g><g transform="translate(480 320)" color="#827665"><rect width="160" height="160" fill="#59544d"/><rect width="160" height="160" fill="url(#grain)"/><use href="#vehicle"/></g><g transform="translate(640 320)" color="#827665"><rect width="160" height="160" fill="#59544d"/><rect width="160" height="160" fill="url(#grain)"/><use href="#structure"/></g><g transform="translate(800 320)" color="#827665"><rect width="160" height="160" fill="#59544d"/><rect width="160" height="160" fill="url(#grain)"/><use href="#barrier"/></g><g transform="translate(0 480)" color="#8a9092"><rect width="160" height="160" fill="#d0cabb"/><rect width="160" height="160" fill="url(#grain)"/><use href="#ground"/></g><g transform="translate(160 480)" color="#8a9092"><rect width="160" height="160" fill="#d0cabb"/><rect width="160" height="160" fill="url(#grain)"/><use href="#rock"/></g><g transform="translate(320 480)" color="#8a9092"><rect width="160" height="160" fill="#d0cabb"/><rect width="160" height="160" fill="url(#grain)"/><use href="#feature"/></g><g transform="translate(480 480)" color="#8a9092"><rect width="160" height="160" fill="#d0cabb"/><rect width="160" height="160" fill="url(#grain)"/><use href="#vehicle"/></g><g transform="translate(640 480)" color="#8a9092"><rect width="160" height="160" fill="#d0cabb"/><rect width="160" height="160" fill="url(#grain)"/><use href="#structure"/></g><g transform="translate(800 480)" color="#8a9092"><rect width="160" height="160" fill="#d0cabb"/><rect width="160" height="160" fill="url(#grain)"/><use href="#barrier"/></g><g transform="translate(0 640)" color="#47515e"><rect width="160" height="160" fill="#16232c"/><rect width="160" height="160" fill="url(#grain)"/><use href="#ground"/></g><g transform="translate(160 640)" color="#47515e"><rect width="160" height="160" fill="#16232c"/><rect width="160" height="160" fill="url(#grain)"/><use href="#rock"/></g><g transform="translate(320 640)" color="#47515e"><rect width="160" height="160" fill="#16232c"/><rect width="160" height="160" fill="url(#grain)"/><use href="#feature"/></g><g transform="translate(480 640)" color="#47515e"><rect width="160" height="160" fill="#16232c"/><rect width="160" height="160" fill="url(#grain)"/><use href="#vehicle"/></g><g transform="translate(640 640)" color="#47515e"><rect width="160" height="160" fill="#16232c"/><rect width="160" height="160" fill="url(#grain)"/><use href="#structure"/></g><g transform="translate(800 640)" color="#47515e"><rect width="160" height="160" fill="#16232c"/><rect width="160" height="160" fill="url(#grain)"/><use href="#barrier"/></g><g transform="translate(0 800)" color="#557176"><rect width="160" height="160" fill="#24353a"/><rect width="160" height="160" fill="url(#grain)"/><use href="#ground"/></g><g transform="translate(160 800)" color="#557176"><rect width="160" height="160" fill="#24353a"/><rect width="160" height="160" fill="url(#grain)"/><use href="#rock"/></g><g transform="translate(320 800)" color="#557176"><rect width="160" height="160" fill="#24353a"/><rect width="160" height="160" fill="url(#grain)"/><use href="#feature"/></g><g transform="translate(480 800)" color="#557176"><rect width="160" height="160" fill="#24353a"/><rect width="160" height="160" fill="url(#grain)"/><use href="#vehicle"/></g><g transform="translate(640 800)" color="#557176"><rect width="160" height="160" fill="#24353a"/><rect width="160" height="160" fill="url(#grain)"/><use href="#structure"/></g><g transform="translate(800 800)" color="#557176"><rect width="160" height="160" fill="#24353a"/><rect width="160" height="160" fill="url(#grain)"/><use href="#barrier"/></g></svg>