<svg xmlns="http://www.w3.org/2000/svg" width="960" height="960" viewBox="0 0 960 960"><defs><filter id="s"><feDropShadow dx="0" dy="5" stdDeviation="3" flood-opacity=".6"/></filter><filter id="g"><feGaussianBlur stdDeviation="3" result="b"/><feMerge><feMergeNode in="b"/><feMergeNode in="SourceGraphic"/></feMerge></filter><linearGradient id="m" x2="1" y2="1"><stop stop-color="#8da59d"/><stop offset="1" stop-color="#263b3b"/></linearGradient><linearGradient id="o" x2="1" y2="1"><stop stop-color="#ffd45a"/><stop offset=".55" stop-color="#ff6b2c"/><stop offset="1" stop-color="#8f2630"/></linearGradient></defs><defs><g id="rock" stroke="#071018" stroke-width="7"><ellipse cy="48" rx="58" ry="16" fill="#000" opacity=".22" stroke="none"/><path d="M-58 35l15-64 43-35 46 26 18 70-38 30-52-3z" fill="var(--a)"/><path d="M-35-18l25-24 35 12M-25 12L12-1l31 20" fill="none" stroke="var(--b)" stroke-width="6" opacity=".7"/></g><g id="plant" fill="none" stroke-linecap="round"><path d="M0 55Q8 8-5-48" stroke="#604631" stroke-width="13"/><path d="M-5-48q30-15 58 5M-5-48q20 3 33 32M-5-48q-12 4-26 32M-5-48q-28-12-55 9M-5-48q-10-28-31-18M-5-48q15-29 24-20" stroke="var(--b)" stroke-width="12"/></g><g id="truck" stroke="#071018" stroke-width="7"><ellipse cy="44" rx="62" ry="15" fill="#000" opacity=".25" stroke="none"/><rect x="-58" y="-30" width="116" height="66" rx="13" fill="#34444a"/><rect x="-38" y="-18" width="31" height="25" fill="#15242a"/><rect x="8" y="-18" width="31" height="25" fill="#15242a"/><circle cx="-40" cy="37" r="17" fill="#11191d"/><circle cx="40" cy="37" r="17" fill="#11191d"/><path d="M-46 18h92" stroke="#ff6b2c"/></g><g id="tower" stroke="#071018" stroke-width="7"><ellipse cy="54" rx="50" ry="13" fill="#000" opacity=".22" stroke="none"/><path d="M-47 48l10-103h76L49 48z" fill="var(--a)"/><path d="M-27-39h54M-31-9h62M-35 23h70" stroke="var(--b)" stroke-width="6" opacity=".8"/><path d="M0-55v-26" stroke="#071018" stroke-width="9"/><circle cy="-87" r="10" fill="#ff6b2c"/></g><g id="bar" stroke="#071018" stroke-width="7"><rect x="-64" y="-20" width="128" height="40" rx="8" fill="var(--b)"/><path d="M-52 20l18-40M-14 20l18-40M24 20l18-40" stroke="#071018" stroke-width="12"/><path d="M-50 20v40M50 20v40" stroke="#243038" stroke-width="11"/></g></defs><g transform="translate(0 0)"><rect width="160" height="160" fill="#c67642"/><path d="M0 34q48-25 94 3t66-5M0 101q50-22 92 6t68-8" fill="none" stroke="#7b3e38" stroke-width="8" opacity=".28"/></g><g transform="translate(240 80)" style="--a:#c67642;--b:#7b3e38"><use href="#rock"/></g><g transform="translate(400 80)" style="--a:#c67642;--b:#7b3e38"><use href="#plant"/></g><g transform="translate(560 80)" style="--a:#c67642;--b:#7b3e38"><use href="#truck"/></g><g transform="translate(720 80)" style="--a:#c67642;--b:#7b3e38"><use href="#tower"/></g><g transform="translate(880 80)" style="--a:#c67642;--b:#7b3e38"><use href="#bar"/></g><g transform="translate(0 160)"><rect width="160" height="160" fill="#d8ad63"/><path d="M0 34q48-25 94 3t66-5M0 101q50-22 92 6t68-8" fill="none" stroke="#4d7258" stroke-width="8" opacity=".28"/></g><g transform="translate(240 240)" style="--a:#d8ad63;--b:#4d7258"><use href="#rock"/></g><g transform="translate(400 240)" style="--a:#d8ad63;--b:#4d7258"><use href="#plant"/></g><g transform="translate(560 240)" style="--a:#d8ad63;--b:#4d7258"><use href="#truck"/></g><g transform="translate(720 240)" style="--a:#d8ad63;--b:#4d7258"><use href="#tower"/></g><g transform="translate(880 240)" style="--a:#d8ad63;--b:#4d7258"><use href="#bar"/></g><g transform="translate(0 320)"><rect width="160" height="160" fill="#9b664d"/><path d="M0 34q48-25 94 3t66-5M0 101q50-22 92 6t68-8" fill="none" stroke="#5f4b45" stroke-width="8" opacity=".28"/></g><g transform="translate(240 400)" style="--a:#9b664d;--b:#5f4b45"><use href="#rock"/></g><g transform="translate(400 400)" style="--a:#9b664d;--b:#5f4b45"><use href="#plant"/></g><g transform="translate(560 400)" style="--a:#9b664d;--b:#5f4b45"><use href="#truck"/></g><g transform="translate(720 400)" style="--a:#9b664d;--b:#5f4b45"><use href="#tower"/></g><g transform="translate(880 400)" style="--a:#9b664d;--b:#5f4b45"><use href="#bar"/></g><g transform="translate(0 480)"><rect width="160" height="160" fill="#e8dfc7"/><path d="M0 34q48-25 94 3t66-5M0 101q50-22 92 6t68-8" fill="none" stroke="#8da7ae" stroke-width="8" opacity=".28"/></g><g transform="translate(240 560)" style="--a:#e8dfc7;--b:#8da7ae"><use href="#rock"/></g><g transform="translate(400 560)" style="--a:#e8dfc7;--b:#8da7ae"><use href="#plant"/></g><g transform="translate(560 560)" style="--a:#e8dfc7;--b:#8da7ae"><use href="#truck"/></g><g transform="translate(720 560)" style="--a:#e8dfc7;--b:#8da7ae"><use href="#tower"/></g><g transform="translate(880 560)" style="--a:#e8dfc7;--b:#8da7ae"><use href="#bar"/></g><g transform="translate(0 640)"><rect width="160" height="160" fill="#4b4a5a"/><path d="M0 34q48-25 94 3t66-5M0 101q50-22 92 6t68-8" fill="none" stroke="#2b6a76" stroke-width="8" opacity=".28"/></g><g transform="translate(240 720)" style="--a:#4b4a5a;--b:#2b6a76"><use href="#rock"/></g><g transform="translate(400 720)" style="--a:#4b4a5a;--b:#2b6a76"><use href="#plant"/></g><g transform="translate(560 720)" style="--a:#4b4a5a;--b:#2b6a76"><use href="#truck"/></g><g transform="translate(720 720)" style="--a:#4b4a5a;--b:#2b6a76"><use href="#tower"/></g><g transform="translate(880 720)" style="--a:#4b4a5a;--b:#2b6a76"><use href="#bar"/></g><g transform="translate(0 800)"><rect width="160" height="160" fill="#5d4540"/><path d="M0 34q48-25 94 3t66-5M0 101q50-22 92 6t68-8" fill="none" stroke="#b75c38" stroke-width="8" opacity=".28"/></g><g transform="translate(240 880)" style="--a:#5d4540;--b:#b75c38"><use href="#rock"/></g><g transform="translate(400 880)" style="--a:#5d4540;--b:#b75c38"><use href="#plant"/></g><g transform="translate(560 880)" style="--a:#5d4540;--b:#b75c38"><use href="#truck"/></g><g transform="translate(720 880)" style="--a:#5d4540;--b:#b75c38"><use href="#tower"/></g><g transform="translate(880 880)" style="--a:#5d4540;--b:#b75c38"><use href="#bar"/></g></svg>