<svg xmlns="http://www.w3.org/2000/svg" width="1024" height="512" viewBox="0 0 1024 512"><defs><filter id="s"><feDropShadow dx="0" dy="5" stdDeviation="3" flood-opacity=".6"/></filter><filter id="g"><feGaussianBlur stdDeviation="3" result="b"/><feMerge><feMergeNode in="b"/><feMergeNode in="SourceGraphic"/></feMerge></filter><linearGradient id="m" x2="1" y2="1"><stop stop-color="#8da59d"/><stop offset="1" stop-color="#263b3b"/></linearGradient><linearGradient id="o" x2="1" y2="1"><stop stop-color="#ffd45a"/><stop offset=".55" stop-color="#ff6b2c"/><stop offset="1" stop-color="#8f2630"/></linearGradient></defs><defs><g id="flash"><path d="M-55 0l30-12 7-34 20 28 36-14-15 31 31 20-36 3-6 35-22-28-34 13 14-31z" fill="url(#o)" filter="url(#g)"/><circle r="13" fill="#fff7c8"/></g><g id="boom"><circle r="54" fill="url(#o)" opacity=".25"/><path d="M0-56l15 31 34-18-9 36 37 8-34 17 19 33-37-10-8 38-18-34-34 20 10-38-39-7 35-18-20-34 38 11z" fill="url(#o)" filter="url(#g)"/><circle r="22" fill="#fff7c8"/></g><g id="smoke"><circle cx="-27" cy="13" r="28" fill="#30343a"/><circle cx="4" cy="-19" r="37" fill="#454950"/><circle cx="35" cy="15" r="30" fill="#272b31"/><circle cy="25" r="38" fill="#373b42"/></g><g id="energy"><circle r="50" fill="none" stroke="#42e8dc" stroke-width="7"/><circle r="32" fill="none" stroke="#b6fff6" stroke-width="5" stroke-dasharray="14 8"/><path d="M-48 0h96M0-48v96" stroke="#42e8dc" stroke-width="4"/><circle r="11" fill="#fff" filter="url(#g)"/></g></defs><g transform="translate(64 64) rotate(0) scale(.45)"><use href="#flash"/></g><g transform="translate(192 64) rotate(22.5) scale(.53)"><use href="#flash"/></g><g transform="translate(320 64) rotate(45) scale(.61)"><use href="#flash"/></g><g transform="translate(448 64) rotate(67.5) scale(.69)"><use href="#flash"/></g><g transform="translate(576 64) rotate(90) scale(.77)"><use href="#flash"/></g><g transform="translate(704 64) rotate(112.5) scale(.85)"><use href="#flash"/></g><g transform="translate(832 64) rotate(135) scale(.93)"><use href="#flash"/></g><g transform="translate(960 64) rotate(157.5) scale(1.01)"><use href="#flash"/></g><g transform="translate(64 192) rotate(0) scale(.45)"><use href="#boom"/></g><g transform="translate(192 192) rotate(22.5) scale(.53)"><use href="#boom"/></g><g transform="translate(320 192) rotate(45) scale(.61)"><use href="#boom"/></g><g transform="translate(448 192) rotate(67.5) scale(.69)"><use href="#boom"/></g><g transform="translate(576 192) rotate(90) scale(.77)"><use href="#boom"/></g><g transform="translate(704 192) rotate(112.5) scale(.85)"><use href="#boom"/></g><g transform="translate(832 192) rotate(135) scale(.93)"><use href="#boom"/></g><g transform="translate(960 192) rotate(157.5) scale(1.01)"><use href="#boom"/></g><g transform="translate(64 320) rotate(0) scale(.72)" opacity=".55"><use href="#smoke"/></g><g transform="translate(192 320) rotate(22.5) scale(.755)" opacity=".61"><use href="#smoke"/></g><g transform="translate(320 320) rotate(45) scale(.79)" opacity=".66"><use href="#smoke"/></g><g transform="translate(448 320) rotate(67.5) scale(.825)" opacity=".72"><use href="#smoke"/></g><g transform="translate(576 320) rotate(90) scale(.86)" opacity=".77"><use href="#smoke"/></g><g transform="translate(704 320) rotate(112.5) scale(.895)" opacity=".83"><use href="#smoke"/></g><g transform="translate(832 320) rotate(135) scale(.93)" opacity=".88"><use href="#smoke"/></g><g transform="translate(960 320) rotate(157.5) scale(.965)" opacity=".94"><use href="#smoke"/></g><g transform="translate(64 448) rotate(0) scale(.72)"><use href="#energy"/></g><g transform="translate(192 448) rotate(22.5) scale(.755)"><use href="#energy"/></g><g transform="translate(320 448) rotate(45) scale(.79)"><use href="#energy"/></g><g transform="translate(448 448) rotate(67.5) scale(.825)"><use href="#energy"/></g><g transform="translate(576 448) rotate(90) scale(.86)"><use href="#energy"/></g><g transform="translate(704 448) rotate(112.5) scale(.895)"><use href="#energy"/></g><g transform="translate(832 448) rotate(135) scale(.93)"><use href="#energy"/></g><g transform="translate(960 448) rotate(157.5) scale(.965)"><use href="#energy"/></g></svg>