<svg xmlns="http://www.w3.org/2000/svg" width="1024" height="512" viewBox="0 0 1024 512"><title>Combat VFX atlas</title><desc>Four eight-frame rows: muzzle flashes, explosions, smoke and energy.</desc><metadata>Black Horizon: Cinder Protocol production atlas v3. Fixed cell grid; no labels embedded in cells.</metadata><defs><filter id="glow" x="-80%" y="-80%" width="260%" height="260%"><feGaussianBlur stdDeviation="3" result="b"/><feMerge><feMergeNode in="b"/><feMergeNode in="SourceGraphic"/></feMerge></filter><radialGradient id="fire"><stop stop-color="#fff3ad"/><stop offset=".42" stop-color="#ff9a38"/><stop offset="1" stop-color="#bf2d22"/></radialGradient><g id="muzzle" filter="url(#glow)"><path d="M0 0L-58-9L-16 0L-58 9Z" fill="url(#fire)"/><circle r="10" fill="#fff3ad"/></g><g id="blast" filter="url(#glow)"><circle r="51" fill="#c92f22" opacity=".5"/><circle r="35" fill="#ff762e" opacity=".82"/><circle r="17" fill="#fff1a0"/><path d="M0-68V-44M48-48L31-31M68 0H44M48 48L31 31M0 68V44M-48 48L-31 31M-68 0H-44M-48-48L-31-31" stroke="#ffd45a" stroke-width="4"/></g><g id="smoke"><circle cx="-18" cy="19" r="21" fill="#778087" opacity=".42"/><circle cx="8" cy="2" r="28" fill="#8a9297" opacity=".5"/><circle cx="-5" cy="-30" r="24" fill="#646d72" opacity=".35"/></g><g id="energy" filter="url(#glow)"><circle r="48" fill="#4fa3ff" opacity=".17" stroke="#42e8dc" stroke-width="3"/><circle r="20" fill="#9c7dff" opacity=".65" stroke="#f4ead6" stroke-width="2"/><path d="M0-60V-19M42-42L14-14M60 0H19M42 42L14 14M0 60V19M-42 42L-14 14M-60 0H-19M-42-42L-14-14" stroke="#42e8dc" stroke-width="2"/></g></defs><g transform="translate(64 64) rotate(0) scale(0.55)" opacity="1.00"><use href="#muzzle"/></g><g transform="translate(192 64) rotate(13) scale(0.6200000000000001)" opacity="1.00"><use href="#muzzle"/></g><g transform="translate(320 64) rotate(26) scale(0.6900000000000001)" opacity="1.00"><use href="#muzzle"/></g><g transform="translate(448 64) rotate(39) scale(0.76)" opacity="1.00"><use href="#muzzle"/></g><g transform="translate(576 64) rotate(52) scale(0.8300000000000001)" opacity="1.00"><use href="#muzzle"/></g><g transform="translate(704 64) rotate(65) scale(0.9000000000000001)" opacity="1.00"><use href="#muzzle"/></g><g transform="translate(832 64) rotate(78) scale(0.9700000000000001)" opacity="1.00"><use href="#muzzle"/></g><g transform="translate(960 64) rotate(91) scale(1.04)" opacity="1.00"><use href="#muzzle"/></g><g transform="translate(64 192) rotate(0) scale(0.46)" opacity="1.00"><use href="#blast"/></g><g transform="translate(192 192) rotate(7) scale(0.535)" opacity="1.00"><use href="#blast"/></g><g transform="translate(320 192) rotate(14) scale(0.61)" opacity="1.00"><use href="#blast"/></g><g transform="translate(448 192) rotate(21) scale(0.685)" opacity="1.00"><use href="#blast"/></g><g transform="translate(576 192) rotate(28) scale(0.76)" opacity="1.00"><use href="#blast"/></g><g transform="translate(704 192) rotate(35) scale(0.835)" opacity="1.00"><use href="#blast"/></g><g transform="translate(832 192) rotate(42) scale(0.9099999999999999)" opacity="1.00"><use href="#blast"/></g><g transform="translate(960 192) rotate(49) scale(0.9850000000000001)" opacity="1.00"><use href="#blast"/></g><g transform="translate(64 320) rotate(0) scale(0.46)" opacity="0.92"><use href="#smoke"/></g><g transform="translate(192 320) rotate(7) scale(0.535)" opacity="0.89"><use href="#smoke"/></g><g transform="translate(320 320) rotate(14) scale(0.61)" opacity="0.85"><use href="#smoke"/></g><g transform="translate(448 320) rotate(21) scale(0.685)" opacity="0.82"><use href="#smoke"/></g><g transform="translate(576 320) rotate(28) scale(0.76)" opacity="0.78"><use href="#smoke"/></g><g transform="translate(704 320) rotate(35) scale(0.835)" opacity="0.74"><use href="#smoke"/></g><g transform="translate(832 320) rotate(42) scale(0.9099999999999999)" opacity="0.71"><use href="#smoke"/></g><g transform="translate(960 320) rotate(49) scale(0.9850000000000001)" opacity="0.68"><use href="#smoke"/></g><g transform="translate(64 448) rotate(0) scale(0.46)" opacity="1.00"><use href="#energy"/></g><g transform="translate(192 448) rotate(13) scale(0.535)" opacity="1.00"><use href="#energy"/></g><g transform="translate(320 448) rotate(26) scale(0.61)" opacity="1.00"><use href="#energy"/></g><g transform="translate(448 448) rotate(39) scale(0.685)" opacity="1.00"><use href="#energy"/></g><g transform="translate(576 448) rotate(52) scale(0.76)" opacity="1.00"><use href="#energy"/></g><g transform="translate(704 448) rotate(65) scale(0.835)" opacity="1.00"><use href="#energy"/></g><g transform="translate(832 448) rotate(78) scale(0.9099999999999999)" opacity="1.00"><use href="#energy"/></g><g transform="translate(960 448) rotate(91) scale(0.9850000000000001)" opacity="1.00"><use href="#energy"/></g></svg>