<svg xmlns="http://www.w3.org/2000/svg" width="768" height="384" viewBox="0 0 768 384"><title>HUD and system icon atlas</title><desc>Thirty-two fixed 96px UI cells for difficulty, resources, objectives, mutators and doctrines.</desc><metadata>Black Horizon: Cinder Protocol production atlas v3. Fixed cell grid; no labels embedded in cells.</metadata><defs><filter id="shadow" x="-40%" y="-40%" width="180%" height="180%"><feDropShadow dx="0" dy="4" stdDeviation="3" flood-color="#000" flood-opacity=".55"/></filter><filter id="glow" x="-80%" y="-80%" width="260%" height="260%"><feGaussianBlur stdDeviation="3" result="b"/><feMerge><feMergeNode in="b"/><feMergeNode in="SourceGraphic"/></feMerge></filter><linearGradient id="steel" x1="0" y1="0" x2="1" y2="1"><stop stop-color="#84939a"/><stop offset=".45" stop-color="#485860"/><stop offset="1" stop-color="#17242b"/></linearGradient><linearGradient id="cloth" x1="0" y1="0" x2="1" y2="1"><stop stop-color="#756b4a"/><stop offset="1" stop-color="#313a31"/></linearGradient><linearGradient id="ember" x1="0" y1="0" x2="1" y2="1"><stop stop-color="#fff2a6"/><stop offset=".42" stop-color="#ff9a38"/><stop offset="1" stop-color="#c83026"/></linearGradient><radialGradient id="core"><stop stop-color="#fff6b0"/><stop offset=".35" stop-color="#ff9a2f"/><stop offset="1" stop-color="#8f1d17"/></radialGradient></defs><g transform="translate(48 48)"><path d="M0-39L31-22L35 18L0 41L-35 18L-31-22Z" fill="#101a20" stroke="#6f7f84" stroke-width="4"/><path d="M-16 15L-12-16L-8 15Z" fill="#42e8dc"/></g><g transform="translate(144 48)"><path d="M0-39L31-22L35 18L0 41L-35 18L-31-22Z" fill="#101a20" stroke="#6f7f84" stroke-width="4"/><path d="M-16 15L-12-16L-8 15Z" fill="#ffd45a"/><path d="M-6 15L-2-16L2 15Z" fill="#ffd45a"/></g><g transform="translate(240 48)"><path d="M0-39L31-22L35 18L0 41L-35 18L-31-22Z" fill="#101a20" stroke="#6f7f84" stroke-width="4"/><path d="M-16 15L-12-16L-8 15Z" fill="#ffd45a"/><path d="M-6 15L-2-16L2 15Z" fill="#ffd45a"/><path d="M4 15L8-16L12 15Z" fill="#ffd45a"/></g><g transform="translate(336 48)"><path d="M0-39L31-22L35 18L0 41L-35 18L-31-22Z" fill="#101a20" stroke="#6f7f84" stroke-width="4"/><path d="M-16 15L-12-16L-8 15Z" fill="#ff7a2f"/><path d="M-6 15L-2-16L2 15Z" fill="#ff7a2f"/><path d="M4 15L8-16L12 15Z" fill="#ff7a2f"/><path d="M14 15L18-16L22 15Z" fill="#ff7a2f"/></g><g transform="translate(432 48)"><path d="M0-39L31-22L35 18L0 41L-35 18L-31-22Z" fill="#101a20" stroke="#6f7f84" stroke-width="4"/><path d="M0-21V21M-21 0H21" stroke="#42e8dc" stroke-width="11"/></g><g transform="translate(528 48)"><path d="M0-39L31-22L35 18L0 41L-35 18L-31-22Z" fill="#101a20" stroke="#6f7f84" stroke-width="4"/><path d="M0-24L21-13L17 15L0 27L-17 15L-21-13Z" fill="none" stroke="#ffd45a" stroke-width="5"/></g><g transform="translate(624 48)"><path d="M0-39L31-22L35 18L0 41L-35 18L-31-22Z" fill="#101a20" stroke="#6f7f84" stroke-width="4"/><rect x="-17" y="-20" width="7" height="39" rx="3" fill="#ffd45a"/><rect x="-5" y="-20" width="7" height="39" rx="3" fill="#ffd45a"/><rect x="7" y="-20" width="7" height="39" rx="3" fill="#ffd45a"/><rect x="19" y="-20" width="7" height="39" rx="3" fill="#ffd45a"/></g><g transform="translate(720 48)"><path d="M0-39L31-22L35 18L0 41L-35 18L-31-22Z" fill="#101a20" stroke="#6f7f84" stroke-width="4"/><circle r="18" fill="#ffd45a"/><rect x="-6" y="-28" width="12" height="12" rx="2" fill="#ffd45a"/></g><g transform="translate(48 144)"><path d="M0-39L31-22L35 18L0 41L-35 18L-31-22Z" fill="#101a20" stroke="#6f7f84" stroke-width="4"/><path d="M3-27L-17 3H-4L-11 29L20-8H7Z" fill="#ffd45a"/></g><g transform="translate(144 144)"><path d="M0-39L31-22L35 18L0 41L-35 18L-31-22Z" fill="#101a20" stroke="#6f7f84" stroke-width="4"/><circle cx="-11" cy="-3" r="14" fill="none" stroke="#ffd45a" stroke-width="5"/><circle cx="12" cy="4" r="14" fill="none" stroke="#ffd45a" stroke-width="5"/></g><g transform="translate(240 144)"><path d="M0-39L31-22L35 18L0 41L-35 18L-31-22Z" fill="#101a20" stroke="#6f7f84" stroke-width="4"/><path d="M0-24L21-13L17 15L0 27L-17 15L-21-13Z" fill="none" stroke="#ffd45a" stroke-width="5"/></g><g transform="translate(336 144)"><path d="M0-39L31-22L35 18L0 41L-35 18L-31-22Z" fill="#101a20" stroke="#6f7f84" stroke-width="4"/><path d="M0-27L7-8L28-8L11 4L18 25L0 13L-18 25L-11 4L-28-8L-7-8Z" fill="#ffd45a"/></g><g transform="translate(432 144)"><path d="M0-39L31-22L35 18L0 41L-35 18L-31-22Z" fill="#101a20" stroke="#6f7f84" stroke-width="4"/><path d="M-23-23L23 23M23-23L-23 23" stroke="#ffd45a" stroke-width="6"/></g><g transform="translate(528 144)"><path d="M0-39L31-22L35 18L0 41L-35 18L-31-22Z" fill="#101a20" stroke="#6f7f84" stroke-width="4"/><rect x="-25" y="-13" width="50" height="28" rx="6" fill="#ffd45a"/><circle cx="-17" cy="19" r="8" fill="#ffd45a"/><circle cx="17" cy="19" r="8" fill="#ffd45a"/></g><g transform="translate(624 144)"><path d="M0-39L31-22L35 18L0 41L-35 18L-31-22Z" fill="#101a20" stroke="#6f7f84" stroke-width="4"/><circle r="11" fill="#ffd45a"/><path d="M-10-7L-28-19M10-7L28-19M-10 7L-28 19M10 7L28 19" stroke="#ffd45a" stroke-width="5"/></g><g transform="translate(720 144)"><path d="M0-39L31-22L35 18L0 41L-35 18L-31-22Z" fill="#101a20" stroke="#6f7f84" stroke-width="4"/><path d="M-23-23L23 23M23-23L-23 23" stroke="#ffd45a" stroke-width="6"/></g><g transform="translate(48 240)"><path d="M0-39L31-22L35 18L0 41L-35 18L-31-22Z" fill="#101a20" stroke="#6f7f84" stroke-width="4"/><path d="M0-21V21M-21 0H21" stroke="#42e8dc" stroke-width="11"/></g><g transform="translate(144 240)"><path d="M0-39L31-22L35 18L0 41L-35 18L-31-22Z" fill="#101a20" stroke="#6f7f84" stroke-width="4"/><circle r="11" fill="#ff7a2f"/><path d="M0 0L29.0 0.0" stroke="#ff7a2f" stroke-width="5"/><path d="M0 0L20.5 20.5" stroke="#ff7a2f" stroke-width="5"/><path d="M0 0L0.0 29.0" stroke="#ff7a2f" stroke-width="5"/><path d="M0 0L-20.5 20.5" stroke="#ff7a2f" stroke-width="5"/><path d="M0 0L-29.0 0.0" stroke="#ff7a2f" stroke-width="5"/><path d="M0 0L-20.5 -20.5" stroke="#ff7a2f" stroke-width="5"/><path d="M0 0L-0.0 -29.0" stroke="#ff7a2f" stroke-width="5"/><path d="M0 0L20.5 -20.5" stroke="#ff7a2f" stroke-width="5"/></g><g transform="translate(240 240)"><path d="M0-39L31-22L35 18L0 41L-35 18L-31-22Z" fill="#101a20" stroke="#6f7f84" stroke-width="4"/><ellipse rx="23" ry="18" fill="#ffd45a"/><path d="M18.0 0.0L30.0 0.0" stroke="#ffd45a" stroke-width="4"/><path d="M9.0 11.3L15.0 19.9" stroke="#ffd45a" stroke-width="4"/><path d="M-9.0 11.3L-15.0 19.9" stroke="#ffd45a" stroke-width="4"/><path d="M-18.0 0.0L-30.0 0.0" stroke="#ffd45a" stroke-width="4"/><path d="M-9.0 -11.3L-15.0 -19.9" stroke="#ffd45a" stroke-width="4"/><path d="M9.0 -11.3L15.0 -19.9" stroke="#ffd45a" stroke-width="4"/></g><g transform="translate(336 240)"><path d="M0-39L31-22L35 18L0 41L-35 18L-31-22Z" fill="#101a20" stroke="#6f7f84" stroke-width="4"/><circle r="24" fill="none" stroke="#ffd45a" stroke-width="5"/><path d="M-21 21L21-21" stroke="#ffd45a" stroke-width="6"/></g><g transform="translate(432 240)"><path d="M0-39L31-22L35 18L0 41L-35 18L-31-22Z" fill="#101a20" stroke="#6f7f84" stroke-width="4"/><path d="M3-27L-17 3H-4L-11 29L20-8H7Z" fill="#ffd45a"/></g><g transform="translate(528 240)"><path d="M0-39L31-22L35 18L0 41L-35 18L-31-22Z" fill="#101a20" stroke="#6f7f84" stroke-width="4"/><path d="M-19 26V-5Q-19-25 0-28Q19-25 19-5V26L10 18L1 26L-8 18Z" fill="#42e8dc"/></g><g transform="translate(624 240)"><path d="M0-39L31-22L35 18L0 41L-35 18L-31-22Z" fill="#101a20" stroke="#6f7f84" stroke-width="4"/><path d="M0-24L21-13L17 15L0 27L-17 15L-21-13Z" fill="none" stroke="#ffd45a" stroke-width="5"/></g><g transform="translate(720 240)"><path d="M0-39L31-22L35 18L0 41L-35 18L-31-22Z" fill="#101a20" stroke="#6f7f84" stroke-width="4"/><circle cx="-6" cy="-5" r="18" fill="none" stroke="#ffd45a" stroke-width="5"/><path d="M8 9L25 26" stroke="#ffd45a" stroke-width="7"/></g><g transform="translate(48 336)"><path d="M0-39L31-22L35 18L0 41L-35 18L-31-22Z" fill="#101a20" stroke="#6f7f84" stroke-width="4"/><circle r="17" fill="#ff7a2f"/><path d="M0-17V-28" stroke="#ff7a2f" stroke-width="5"/></g><g transform="translate(144 336)"><path d="M0-39L31-22L35 18L0 41L-35 18L-31-22Z" fill="#101a20" stroke="#6f7f84" stroke-width="4"/><circle cx="-11" cy="-3" r="14" fill="none" stroke="#ffd45a" stroke-width="5"/><circle cx="12" cy="4" r="14" fill="none" stroke="#ffd45a" stroke-width="5"/></g><g transform="translate(240 336)"><path d="M0-39L31-22L35 18L0 41L-35 18L-31-22Z" fill="#101a20" stroke="#6f7f84" stroke-width="4"/><path d="M-26 2L-9-19L0-7L21-27L11-3L27 7L4 9L-7 28Z" fill="#ff7a2f"/></g><g transform="translate(336 336)"><path d="M0-39L31-22L35 18L0 41L-35 18L-31-22Z" fill="#101a20" stroke="#6f7f84" stroke-width="4"/><path d="M23-7A25 25 0 1 1-7-23" fill="none" stroke="#ffd45a" stroke-width="6"/><path d="M18-22L30-5L10-8Z" fill="#ffd45a"/></g><g transform="translate(432 336)"><path d="M0-39L31-22L35 18L0 41L-35 18L-31-22Z" fill="#101a20" stroke="#6f7f84" stroke-width="4"/><path d="M3-27L-17 3H-4L-11 29L20-8H7Z" fill="#ffd45a"/></g><g transform="translate(528 336)"><path d="M0-39L31-22L35 18L0 41L-35 18L-31-22Z" fill="#101a20" stroke="#6f7f84" stroke-width="4"/><circle r="25" fill="none" stroke="#ffd45a" stroke-width="5"/><circle r="9" fill="#ffd45a"/></g><g transform="translate(624 336)"><path d="M0-39L31-22L35 18L0 41L-35 18L-31-22Z" fill="#101a20" stroke="#6f7f84" stroke-width="4"/><path d="M0 26V-21M-17-5L0-25L17-5" fill="none" stroke="#ffd45a" stroke-width="6"/></g><g transform="translate(720 336)"><path d="M0-39L31-22L35 18L0 41L-35 18L-31-22Z" fill="#101a20" stroke="#6f7f84" stroke-width="4"/><rect x="-24" y="-24" width="48" height="48" rx="7" fill="none" stroke="#ffd45a" stroke-width="5"/><circle r="11" fill="#ffd45a"/></g></svg>