<svg xmlns="http://www.w3.org/2000/svg" width="1600" height="900" viewBox="0 0 1600 900" role="img" aria-labelledby="t d">
<title id="t">Black Horizon Cinder Protocol key art</title><desc id="d">A comic-styled special operations officer races through a desert battle carrying a glowing isotope case.</desc>
<defs>
 <linearGradient id="sky" x1="0" y1="0" x2="0" y2="1"><stop stop-color="#081722"/><stop offset=".42" stop-color="#714139"/><stop offset="1" stop-color="#e2914b"/></linearGradient>
 <linearGradient id="sand" x1="0" y1="0" x2="1" y2="1"><stop stop-color="#7a4035"/><stop offset=".45" stop-color="#c26d3d"/><stop offset="1" stop-color="#e6b264"/></linearGradient>
 <linearGradient id="skin" x1="0" y1="0" x2="1" y2="1"><stop stop-color="#efbc8e"/><stop offset=".55" stop-color="#bd7658"/><stop offset="1" stop-color="#753c35"/></linearGradient>
 <linearGradient id="gear" x1="0" y1="0" x2="1" y2="1"><stop stop-color="#667b69"/><stop offset=".55" stop-color="#344a43"/><stop offset="1" stop-color="#17272c"/></linearGradient>
 <linearGradient id="case" x1="0" y1="0" x2="1" y2="1"><stop stop-color="#23383d"/><stop offset=".58" stop-color="#111c23"/><stop offset="1" stop-color="#071018"/></linearGradient>
 <radialGradient id="sun"><stop stop-color="#fffbd0"/><stop offset=".22" stop-color="#ffcc60"/><stop offset=".58" stop-color="#ff6b2c" stop-opacity=".62"/><stop offset="1" stop-color="#ff6b2c" stop-opacity="0"/></radialGradient>
 <radialGradient id="blast"><stop stop-color="#fffde1"/><stop offset=".18" stop-color="#ffd45a"/><stop offset=".48" stop-color="#ff6b2c"/><stop offset="1" stop-color="#681f27" stop-opacity="0"/></radialGradient>
 <pattern id="dots" width="12" height="12" patternUnits="userSpaceOnUse"><circle cx="2" cy="2" r="1.5" fill="#061018" opacity=".2"/></pattern>
 <filter id="shadow" x="-50%" y="-50%" width="220%" height="220%"><feDropShadow dx="9" dy="14" stdDeviation="5" flood-color="#000" flood-opacity=".78"/></filter>
 <filter id="glow" x="-100%" y="-100%" width="300%" height="300%"><feGaussianBlur stdDeviation="10" result="b"/><feMerge><feMergeNode in="b"/><feMergeNode in="SourceGraphic"/></feMerge></filter>
</defs>
<rect width="1600" height="900" fill="url(#sky)"/><rect width="1600" height="900" fill="url(#dots)" opacity=".3"/><circle cx="1330" cy="145" r="290" fill="url(#sun)"/>
<!-- mountains and facility -->
<path d="M0 525L170 302 320 440 490 205 690 450 860 275 1040 462 1235 230 1425 430 1600 285V900H0Z" fill="#263440" stroke="#061018" stroke-width="17"/>
<path d="M0 590L220 425 390 535 590 360 770 550 995 380 1180 545 1395 390 1600 520V900H0Z" fill="#512f31" opacity=".82"/>
<g transform="translate(1110 265)" fill="#111e25" stroke="#061018" stroke-width="13" filter="url(#shadow)"><path d="M0 330V65h385v265z"/><path d="M70 65V-75h244V65"/><path d="M25 125h335M25 198h335M25 270h335" stroke="#ff6b2c" stroke-width="7" opacity=".6"/><path d="M95 330V135h76v195M218 330V135h76v195" fill="#d89a52" opacity=".35"/><path d="M117-75v-90M272-75v-140" fill="none" stroke="#111e25" stroke-width="20"/><circle cx="117" cy="-176" r="12" fill="#ff6b2c" stroke="none"/><circle cx="272" cy="-225" r="12" fill="#ff6b2c" stroke="none"/></g>
<!-- distant refinery -->
<g fill="#122129" stroke="#061018" stroke-width="8" opacity=".85"><path d="M920 510V355h56v155M990 510V300h46v210M1045 510V390h70v120"/><path d="M947 355V250h12v105M1010 300V185h12v115M1080 390V270h13v120" fill="none"/></g>
<!-- ground -->
<path d="M0 615Q250 490 520 625T1050 605Q1300 485 1600 610V900H0Z" fill="url(#sand)" stroke="#6f342f" stroke-width="14"/><path d="M0 615Q250 490 520 625T1050 605Q1300 485 1600 610V900H0Z" fill="url(#dots)" opacity=".35"/>
<!-- smoke and explosions -->
<g opacity=".78"><circle cx="1185" cy="505" r="130" fill="url(#blast)"/><circle cx="1480" cy="590" r="115" fill="url(#blast)"/><path d="M1170 460c-35-100-4-160 49-214 2 74 76 93 50 173 57-29 101 12 104 86-73-36-133-10-203-45z" fill="#29282b" opacity=".72"/><path d="M1454 535c-27-93 16-143 69-190-4 73 61 95 35 157 54-17 91 31 77 91-63-37-113-16-181-58z" fill="#25272a" opacity=".72"/></g>
<!-- helicopter -->
<g transform="translate(1225 120) rotate(-8)" fill="#17242b" stroke="#061018" stroke-width="9" filter="url(#shadow)"><path d="M-112 5Q-70-48 25-31Q92-17 108 21Q37 52-70 39Z"/><path d="M-75 37l-48 44M51 43l28 50M105 14l94-21" fill="none" stroke-width="13"/><path d="M-24-32V-72M-150-71H105" fill="none" stroke-width="8"/><circle cy="-72" r="8" fill="#ff6b2c" stroke="none"/></g>
<!-- vehicles and enemy silhouettes -->
<g transform="translate(230 690)" filter="url(#shadow)" stroke="#061018"><path d="M-105-42h185l44 58-14 70h-225z" fill="#27363c" stroke-width="12"/><path d="M-55-30h67v43h-78zM24-30h51l28 43H24z" fill="#101a20" stroke-width="8"/><circle cx="-73" cy="82" r="29" fill="#0c1318" stroke-width="12"/><circle cx="76" cy="82" r="29" fill="#0c1318" stroke-width="12"/><path d="M8-43v-71M-33-114h93" fill="none" stroke-width="16"/><circle cx="58" cy="-114" r="11" fill="#ffd45a" stroke-width="5"/></g>
<g fill="#10191e" stroke="#061018" stroke-width="7"><path d="M410 660l18-68 38-22 39 26 8 64-36 39-46-5z"/><circle cx="467" cy="554" r="20"/><path d="M510 720l14-73 38-22 38 25 13 70-36 43-47-7z"/><circle cx="561" cy="609" r="20"/></g>
<!-- central hero sprinting -->
<g transform="translate(835 548) rotate(-8)" filter="url(#shadow)" stroke="#061018" stroke-linejoin="round">
 <!-- hair --> <path d="M45-206c84-88 174-26 183 48-45-31-92-15-130 17 56 1 91 40 76 90-42-38-86-38-132-15z" fill="#141b20" stroke-width="15"/>
 <!-- rear leg --> <path d="M57 120l119 222-66 45L-5 196z" fill="#263c3a" stroke-width="18"/><path d="M177 339l76 47-19 54-132-50z" fill="#111c22" stroke-width="17"/>
 <!-- front leg --> <path d="M-42 132l-32 236-77-8 8-260z" fill="#405b4f" stroke-width="18"/><path d="M-78 351l-15 69-138-3 76-68z" fill="#111c22" stroke-width="17"/>
 <!-- torso --> <path d="M-91-90c58-66 172-69 228-2l12 197-222 23-61-145z" fill="url(#gear)" stroke-width="19"/><path d="M-80-50h190v125H-80z" fill="#203437" stroke-width="13"/><path d="M-53-27h45v75h-45zM9-27h45v75H9zM70-27h30v75H70z" fill="#4c6256" stroke-width="8"/>
 <!-- head --> <path d="M-45-194c45-53 128-44 159 17 28 55-12 126-67 143-52 15-108-33-111-94-1-26 5-48 19-66z" fill="url(#skin)" stroke-width="16"/><path d="M-64-166c20-93 127-113 182-33 18 25 22 55 16 84-31-40-68-58-114-55-28 27-56 42-84 46z" fill="#151c21" stroke-width="15"/>
 <!-- glasses/headset --> <path d="M-39-143c34-16 69-16 100-4l-8 45c-32 17-64 17-96 1z" fill="#0f252b" stroke-width="12"/><path d="M61-146c24-7 46-2 66 12l-9 42c-22 11-43 10-62-1z" fill="#0f252b" stroke-width="11"/><path d="M-24-132h65M75-132h33" stroke="#42e8dc" stroke-width="6"/><ellipse cx="126" cy="-119" rx="27" ry="35" fill="#27363c" stroke-width="11"/><path d="M137-89c27 12 38 29 39 51" fill="none" stroke-width="9"/><circle cx="176" cy="-36" r="7" fill="#ff6b2c" stroke-width="4"/>
 <!-- arms --> <path d="M-100-35l-154 110 36 57L-51 62" fill="url(#skin)" stroke-width="19"/><path d="M123-33l132 87-30 64L88 62" fill="url(#skin)" stroke-width="19"/><path d="M-250 68l-39 52 72 43 40-49zM253 48l49 33-34 69-59-35z" fill="#172329" stroke-width="16"/>
 <!-- weapon across chest --> <g transform="translate(-170 20) rotate(-11)"><rect width="375" height="52" rx="11" fill="#26353c" stroke-width="14"/><path d="M78 52l52 92h70l-36-92M286 0v-43h75v43M375 25h86" fill="#1a252b" stroke-width="12"/><path d="M20 15h295" stroke="#42e8dc" stroke-width="5" opacity=".55"/></g>
 <!-- glowing case --> <g transform="translate(-260 102) rotate(12)"><rect width="165" height="125" rx="16" fill="url(#case)" stroke-width="16"/><path d="M42 0v-30h81V0" fill="none" stroke-width="15"/><circle cx="82" cy="62" r="36" fill="#ffd45a" filter="url(#glow)" stroke-width="9"/><path d="M82 38v48M58 62h48" stroke-width="12"/><path d="M15 18h28M122 18h28M16 105h32M117 105h33" stroke="#ff6b2c" stroke-width="6"/></g>
 <!-- patch --> <rect x="-18" y="3" width="84" height="35" rx="5" fill="#132229" stroke-width="7"/><text x="24" y="29" text-anchor="middle" fill="#f8f2df" font-family="Arial Black" font-size="20">BH-01</text>
</g>
<!-- foreground tracers/debris -->
<g stroke-linecap="round"><path d="M70 470L650 350M1540 355L1030 490M1510 735L1020 625" stroke="#ffd45a" stroke-width="6" opacity=".8"/><path d="M80 480L655 360M1528 368L1028 500" stroke="#ff6b2c" stroke-width="2"/></g>
<g fill="#251d1d" opacity=".7"><circle cx="700" cy="760" r="9"/><circle cx="760" cy="810" r="6"/><circle cx="1010" cy="730" r="8"/><circle cx="1090" cy="785" r="5"/><circle cx="535" cy="720" r="5"/></g>
<!-- small identity mark, kept clear of the menu panel -->
<g transform="translate(1190 735)" filter="url(#shadow)"><path d="M0 0h340l-28 112H0z" fill="#071018" opacity=".86" stroke="#42e8dc" stroke-opacity=".35" stroke-width="3"/><text x="24" y="45" fill="#f8f2df" font-family="Arial Black" font-size="32" letter-spacing="4">BLACK HORIZON</text><text x="25" y="80" fill="#ff6b2c" font-family="Arial Black" font-size="19" letter-spacing="7">CINDER PROTOCOL</text></g>
</svg>
