<svg xmlns="http://www.w3.org/2000/svg" width="900" height="260" viewBox="0 0 900 260"><defs>
    <filter id="shadow" x="-50%" y="-50%" width="200%" height="200%"><feDropShadow dx="0" dy="7" stdDeviation="5" flood-color="#000" flood-opacity=".65"/></filter>
    <filter id="glow" x="-100%" y="-100%" width="300%" height="300%"><feGaussianBlur stdDeviation="4" result="b"/><feMerge><feMergeNode in="b"/><feMergeNode in="SourceGraphic"/></feMerge></filter>
    <linearGradient id="copper" x1="0" y1="0" x2="1" y2="1"><stop stop-color="#ffb24a"/><stop offset=".55" stop-color="#ff6b2c"/><stop offset="1" stop-color="#b92c1f"/></linearGradient>
    <linearGradient id="cyanG" x1="0" y1="0" x2="1" y2="1"><stop stop-color="#b6fff6"/><stop offset=".45" stop-color="#42e8dc"/><stop offset="1" stop-color="#167d8a"/></linearGradient>
    <linearGradient id="steelG" x1="0" y1="0" x2="1" y2="1"><stop stop-color="#9eb6bc"/><stop offset=".5" stop-color="#415862"/><stop offset="1" stop-color="#18262d"/></linearGradient>
    <linearGradient id="sandG" x1="0" y1="0" x2="0" y2="1"><stop stop-color="#f0c77b"/><stop offset=".5" stop-color="#d58d4c"/><stop offset="1" stop-color="#704238"/></linearGradient>
    <radialGradient id="blast"><stop stop-color="#fffbd0"/><stop offset=".25" stop-color="#ffd45a"/><stop offset=".58" stop-color="#ff6b2c"/><stop offset="1" stop-color="#541b24" stop-opacity="0"/></radialGradient>
    <pattern id="halftone" width="12" height="12" patternUnits="userSpaceOnUse"><circle cx="2" cy="2" r="1.6" fill="#071018" opacity=".18"/></pattern>
    <pattern id="grid" width="28" height="28" patternUnits="userSpaceOnUse"><path d="M28 0H0V28" fill="none" stroke="#42e8dc" stroke-opacity=".08" stroke-width="1"/></pattern>
    </defs>
<rect width="900" height="260" rx="24" fill="#071018"/><rect x="9" y="9" width="882" height="242" rx="20" fill="url(#grid)" stroke="#25404b" stroke-width="2"/>
<path d="M82 55H318L345 28H557L584 55H818" fill="none" stroke="#ff6b2c" stroke-width="6"/>
<g transform="translate(450 47)"><circle r="25" fill="#0e1c24" stroke="#ff6b2c" stroke-width="5"/><path d="M0-16L5-5 17-4 8 4 11 16 0 10-11 16-8 4-17-4-5-5Z" fill="url(#copper)"/></g>
<text x="450" y="147" text-anchor="middle" fill="#f8f2df" stroke="#02080c" stroke-width="10" paint-order="stroke" font-family="Impact,Arial Black,sans-serif" font-size="88" letter-spacing="5">BLACK HORIZON</text>
<path d="M120 176H780" stroke="#42e8dc" stroke-width="5"/><path d="M150 190H750" stroke="#ff6b2c" stroke-width="3" stroke-dasharray="32 11"/>
<text x="450" y="230" text-anchor="middle" fill="#ff6b2c" font-family="Arial Black,system-ui,sans-serif" font-size="32" letter-spacing="11">CINDER PROTOCOL</text>
</svg>
