<svg xmlns="http://www.w3.org/2000/svg" width="512" height="1408" viewBox="0 0 512 1408"><defs><filter id="s"><feDropShadow dx="0" dy="5" stdDeviation="3" flood-opacity=".6"/></filter><filter id="g"><feGaussianBlur stdDeviation="3" result="b"/><feMerge><feMergeNode in="b"/><feMergeNode in="SourceGraphic"/></feMerge></filter><linearGradient id="m" x2="1" y2="1"><stop stop-color="#8da59d"/><stop offset="1" stop-color="#263b3b"/></linearGradient><linearGradient id="o" x2="1" y2="1"><stop stop-color="#ffd45a"/><stop offset=".55" stop-color="#ff6b2c"/><stop offset="1" stop-color="#8f2630"/></linearGradient></defs><defs><g id="E" filter="url(#s)" stroke="#071018" stroke-linejoin="round"><ellipse cy="38" rx="33" ry="11" fill="#000" opacity=".3" stroke="none"/><path d="M-15 15l-8 34M15 15l8 34" stroke="#18232a" stroke-width="13" stroke-linecap="round"/><rect x="-28" y="-28" width="56" height="54" rx="14" fill="var(--c,#755043)" stroke-width="6"/><path d="M-25-8h50v25h-50z" fill="#28363b" stroke="none"/><circle cy="-44" r="17" fill="var(--skin,#b87855)" stroke-width="5"/><path d="M-18-50Q0-68 19-50v10Q0-48-18-40z" fill="#18232a" stroke="none"/><path d="M-23-8L-9-34M23-8L9-34" stroke="var(--skin,#b87855)" stroke-width="9" stroke-linecap="round"/><path d="M0-27v-44" stroke="#121b20" stroke-width="10"/><rect x="-7" y="-78" width="14" height="50" rx="3" fill="#29363c" stroke-width="4"/></g><g id="D" filter="url(#s)" stroke="#071018" stroke-width="6"><ellipse cy="20" rx="45" ry="13" fill="#000" opacity=".25" stroke="none"/><path d="M-45 0l24-25h42L45 0 20 27h-40z" fill="var(--c,#596b72)"/><circle r="16" fill="#42e8dc"/><path d="M-58-7H58M0-38V38" stroke="#26343a" stroke-width="10"/></g></defs><g transform="translate(64 70) scale(1)" style="--c:#765043"><use href="#E"/></g><g transform="translate(192 70) scale(1)" style="--c:#765043"><use href="#E"/><path d="M22-45l34-14-24 25z" fill="#ffd45a" filter="url(#g)"/></g><g transform="translate(320 70) scale(1)" style="--c:#765043"><use href="#E"/><path d="M-44-55L45 42M44-55L-45 42" stroke="#fff" stroke-width="8" opacity=".75"/></g><g transform="translate(448 70) scale(1)" style="--c:#765043"><use href="#E"/><path d="M-48 26L44-18" stroke="#ff6b2c" stroke-width="12" opacity=".75"/></g><g transform="translate(64 198) scale(1)" style="--c:#9b4f3f"><use href="#E"/></g><g transform="translate(192 198) scale(1)" style="--c:#9b4f3f"><use href="#E"/><path d="M22-45l34-14-24 25z" fill="#ffd45a" filter="url(#g)"/></g><g transform="translate(320 198) scale(1)" style="--c:#9b4f3f"><use href="#E"/><path d="M-44-55L45 42M44-55L-45 42" stroke="#fff" stroke-width="8" opacity=".75"/></g><g transform="translate(448 198) scale(1)" style="--c:#9b4f3f"><use href="#E"/><path d="M-48 26L44-18" stroke="#ff6b2c" stroke-width="12" opacity=".75"/></g><g transform="translate(64 326) scale(1)" style="--c:#81614a"><use href="#E"/></g><g transform="translate(192 326) scale(1)" style="--c:#81614a"><use href="#E"/><path d="M22-45l34-14-24 25z" fill="#ffd45a" filter="url(#g)"/></g><g transform="translate(320 326) scale(1)" style="--c:#81614a"><use href="#E"/><path d="M-44-55L45 42M44-55L-45 42" stroke="#fff" stroke-width="8" opacity=".75"/></g><g transform="translate(448 326) scale(1)" style="--c:#81614a"><use href="#E"/><path d="M-48 26L44-18" stroke="#ff6b2c" stroke-width="12" opacity=".75"/></g><g transform="translate(64 454) scale(1)" style="--c:#4b5964"><use href="#E"/></g><g transform="translate(192 454) scale(1)" style="--c:#4b5964"><use href="#E"/><path d="M22-45l34-14-24 25z" fill="#ffd45a" filter="url(#g)"/></g><g transform="translate(320 454) scale(1)" style="--c:#4b5964"><use href="#E"/><path d="M-44-55L45 42M44-55L-45 42" stroke="#fff" stroke-width="8" opacity=".75"/></g><g transform="translate(448 454) scale(1)" style="--c:#4b5964"><use href="#E"/><path d="M-48 26L44-18" stroke="#ff6b2c" stroke-width="12" opacity=".75"/></g><g transform="translate(64 582) scale(1)" style="--c:#606b68"><use href="#E"/><path d="M-43-28h86v70h-86z" fill="#5e6d70" opacity=".62" stroke="#071018" stroke-width="6"/></g><g transform="translate(192 582) scale(1)" style="--c:#606b68"><use href="#E"/><path d="M-43-28h86v70h-86z" fill="#5e6d70" opacity=".62" stroke="#071018" stroke-width="6"/><path d="M22-45l34-14-24 25z" fill="#ffd45a" filter="url(#g)"/></g><g transform="translate(320 582) scale(1)" style="--c:#606b68"><use href="#E"/><path d="M-43-28h86v70h-86z" fill="#5e6d70" opacity=".62" stroke="#071018" stroke-width="6"/><path d="M-44-55L45 42M44-55L-45 42" stroke="#fff" stroke-width="8" opacity=".75"/></g><g transform="translate(448 582) scale(1)" style="--c:#606b68"><use href="#E"/><path d="M-43-28h86v70h-86z" fill="#5e6d70" opacity=".62" stroke="#071018" stroke-width="6"/><path d="M-48 26L44-18" stroke="#ff6b2c" stroke-width="12" opacity=".75"/></g><g transform="translate(64 710) scale(1.08)" style="--c:#4d514c"><use href="#E"/></g><g transform="translate(192 710) scale(1.08)" style="--c:#4d514c"><use href="#E"/><path d="M22-45l34-14-24 25z" fill="#ffd45a" filter="url(#g)"/></g><g transform="translate(320 710) scale(1.08)" style="--c:#4d514c"><use href="#E"/><path d="M-44-55L45 42M44-55L-45 42" stroke="#fff" stroke-width="8" opacity=".75"/></g><g transform="translate(448 710) scale(1.08)" style="--c:#4d514c"><use href="#E"/><path d="M-48 26L44-18" stroke="#ff6b2c" stroke-width="12" opacity=".75"/></g><g transform="translate(64 838)" style="--c:#536a72"><use href="#D"/></g><g transform="translate(192 838)" style="--c:#536a72"><use href="#D"/><path d="M22-45l34-14-24 25z" fill="#ffd45a" filter="url(#g)"/></g><g transform="translate(320 838)" style="--c:#536a72"><use href="#D"/><path d="M-44-55L45 42M44-55L-45 42" stroke="#fff" stroke-width="8" opacity=".75"/></g><g transform="translate(448 838)" style="--c:#536a72"><use href="#D"/><path d="M-48 26L44-18" stroke="#ff6b2c" stroke-width="12" opacity=".75"/></g><g transform="translate(64 966) scale(1.08)" style="--c:#7c4c38"><use href="#E"/></g><g transform="translate(192 966) scale(1.08)" style="--c:#7c4c38"><use href="#E"/><path d="M22-45l34-14-24 25z" fill="#ffd45a" filter="url(#g)"/></g><g transform="translate(320 966) scale(1.08)" style="--c:#7c4c38"><use href="#E"/><path d="M-44-55L45 42M44-55L-45 42" stroke="#fff" stroke-width="8" opacity=".75"/></g><g transform="translate(448 966) scale(1.08)" style="--c:#7c4c38"><use href="#E"/><path d="M-48 26L44-18" stroke="#ff6b2c" stroke-width="12" opacity=".75"/></g><g transform="translate(64 1094) scale(1)" style="--c:#477261"><use href="#E"/><path d="M-11-6h22v22h-22zM-11 0h22" fill="#f3e7c8" stroke="#3b6a58" stroke-width="5"/></g><g transform="translate(192 1094) scale(1)" style="--c:#477261"><use href="#E"/><path d="M-11-6h22v22h-22zM-11 0h22" fill="#f3e7c8" stroke="#3b6a58" stroke-width="5"/><path d="M22-45l34-14-24 25z" fill="#ffd45a" filter="url(#g)"/></g><g transform="translate(320 1094) scale(1)" style="--c:#477261"><use href="#E"/><path d="M-11-6h22v22h-22zM-11 0h22" fill="#f3e7c8" stroke="#3b6a58" stroke-width="5"/><path d="M-44-55L45 42M44-55L-45 42" stroke="#fff" stroke-width="8" opacity=".75"/></g><g transform="translate(448 1094) scale(1)" style="--c:#477261"><use href="#E"/><path d="M-11-6h22v22h-22zM-11 0h22" fill="#f3e7c8" stroke="#3b6a58" stroke-width="5"/><path d="M-48 26L44-18" stroke="#ff6b2c" stroke-width="12" opacity=".75"/></g><g transform="translate(64 1222) scale(1)" style="--c:#763f36"><use href="#E"/></g><g transform="translate(192 1222) scale(1)" style="--c:#763f36"><use href="#E"/><path d="M22-45l34-14-24 25z" fill="#ffd45a" filter="url(#g)"/></g><g transform="translate(320 1222) scale(1)" style="--c:#763f36"><use href="#E"/><path d="M-44-55L45 42M44-55L-45 42" stroke="#fff" stroke-width="8" opacity=".75"/></g><g transform="translate(448 1222) scale(1)" style="--c:#763f36"><use href="#E"/><path d="M-48 26L44-18" stroke="#ff6b2c" stroke-width="12" opacity=".75"/></g><g transform="translate(64 1350) scale(1.18)" style="--c:#6f3030"><use href="#E"/><path d="M-42-10h84v34h-84z" fill="#8f2630" opacity=".65" stroke="#ffd45a" stroke-width="5"/></g><g transform="translate(192 1350) scale(1.18)" style="--c:#6f3030"><use href="#E"/><path d="M-42-10h84v34h-84z" fill="#8f2630" opacity=".65" stroke="#ffd45a" stroke-width="5"/><path d="M22-45l34-14-24 25z" fill="#ffd45a" filter="url(#g)"/></g><g transform="translate(320 1350) scale(1.18)" style="--c:#6f3030"><use href="#E"/><path d="M-42-10h84v34h-84z" fill="#8f2630" opacity=".65" stroke="#ffd45a" stroke-width="5"/><path d="M-44-55L45 42M44-55L-45 42" stroke="#fff" stroke-width="8" opacity=".75"/></g><g transform="translate(448 1350) scale(1.18)" style="--c:#6f3030"><use href="#E"/><path d="M-42-10h84v34h-84z" fill="#8f2630" opacity=".65" stroke="#ffd45a" stroke-width="5"/><path d="M-48 26L44-18" stroke="#ff6b2c" stroke-width="12" opacity=".75"/></g></svg>