<svg xmlns="http://www.w3.org/2000/svg" width="512" height="1408" viewBox="0 0 512 1408"><title>Enemy state atlas</title><desc>Eleven archetype rows, four state columns: idle, attack, hit, death.</desc><metadata>Black Horizon: Cinder Protocol production atlas v3. Fixed cell grid; no labels embedded in cells.</metadata><defs><filter id="shadow" x="-40%" y="-40%" width="180%" height="180%"><feDropShadow dx="0" dy="4" stdDeviation="3" flood-color="#000" flood-opacity=".55"/></filter><filter id="glow" x="-80%" y="-80%" width="260%" height="260%"><feGaussianBlur stdDeviation="3" result="b"/><feMerge><feMergeNode in="b"/><feMergeNode in="SourceGraphic"/></feMerge></filter><linearGradient id="steel" x1="0" y1="0" x2="1" y2="1"><stop stop-color="#84939a"/><stop offset=".45" stop-color="#485860"/><stop offset="1" stop-color="#17242b"/></linearGradient><linearGradient id="cloth" x1="0" y1="0" x2="1" y2="1"><stop stop-color="#756b4a"/><stop offset="1" stop-color="#313a31"/></linearGradient><linearGradient id="ember" x1="0" y1="0" x2="1" y2="1"><stop stop-color="#fff2a6"/><stop offset=".42" stop-color="#ff9a38"/><stop offset="1" stop-color="#c83026"/></linearGradient><radialGradient id="core"><stop stop-color="#fff6b0"/><stop offset=".35" stop-color="#ff9a2f"/><stop offset="1" stop-color="#8f1d17"/></radialGradient><g id="trooper" filter="url(#shadow)" stroke="#071018" stroke-linecap="round" stroke-linejoin="round"><ellipse cy="35" rx="29" ry="9" fill="#000" opacity=".3" stroke="none"/><path d="M-13 10L-20 42M13 10L20 42" stroke="#1b2529" stroke-width="13"/><path d="M-13 10L-18 39M13 10L18 39" stroke="#4d5548" stroke-width="7"/><path d="M-23-22L-31 2M23-22L31 2" stroke="#916247" stroke-width="8"/><path d="M-24-25Q0-36 24-25L20 18Q0 27-20 18Z" fill="currentColor" stroke-width="5"/><path d="M-17-13H17V9H-17Z" fill="#222f34" stroke="none"/><circle cy="-38" r="15" fill="#80543f" stroke-width="5"/><path d="M-17-44Q0-58 17-44V-33Q0-42-17-33Z" fill="#1a2024" stroke="none"/><path d="M0-20V-69" stroke="#071018" stroke-width="10"/><rect x="-6" y="-72" width="12" height="52" rx="3" fill="url(#steel)" stroke-width="4"/></g><g id="shield"><path d="M-43-26H-12L-8 24L-28 39L-47 22Z" fill="#46555c" stroke="#071018" stroke-width="5"/><path d="M-37-15H-18V13H-37Z" fill="#151e22" stroke="#ffd45a" stroke-width="2"/></g><g id="heavy"><rect x="-28" y="9" width="56" height="25" rx="7" fill="#39454a" stroke="#071018" stroke-width="4"/><path d="M-21 18H21" stroke="#ffd45a" stroke-width="5" stroke-dasharray="4 5"/></g><g id="medic"><rect x="-15" y="4" width="30" height="29" rx="6" fill="#e8e3d6" stroke="#071018" stroke-width="4"/><path d="M0 10V27M-8 19H8" stroke="#e84b43" stroke-width="5"/></g><g id="hunter"><path d="M-23-7L-43 29L-7 18ZM23-7L43 29L7 18Z" fill="#273832" stroke="#071018" stroke-width="4"/></g><g id="drone" filter="url(#shadow)" stroke="#071018" stroke-linejoin="round"><ellipse cy="29" rx="32" ry="8" fill="#000" opacity=".28" stroke="none"/><circle r="21" fill="#26333a" stroke-width="5"/><circle r="10" fill="url(#core)" stroke="#ffd45a" stroke-width="2"/><path d="M-17-12L-40-27M17-12L40-27M-17 12L-40 27M17 12L40 27" stroke="#52636b" stroke-width="7"/><ellipse cx="-43" cy="-29" rx="14" ry="4" fill="#7d8b90"/><ellipse cx="43" cy="-29" rx="14" ry="4" fill="#7d8b90"/><ellipse cx="-43" cy="29" rx="14" ry="4" fill="#7d8b90"/><ellipse cx="43" cy="29" rx="14" ry="4" fill="#7d8b90"/></g></defs><g transform="translate(64 64) rotate(0) scale(1.0)" style="color:#4c5b5b" opacity="1"><use href="#trooper"/></g><g transform="translate(192 64) rotate(0) scale(1.0)" style="color:#4c5b5b" opacity="1"><use href="#trooper"/><path d="M0-73L-13-100L0-91L13-100Z" fill="url(#ember)" filter="url(#glow)"/></g><g transform="translate(320 64) rotate(0) scale(1.0)" style="color:#4c5b5b" opacity=".52" filter="url(#glow)"><use href="#trooper"/></g><g transform="translate(448 64) rotate(-68) scale(1.0)" style="color:#4c5b5b" opacity="1"><use href="#trooper"/></g><g transform="translate(64 192) rotate(0) scale(1.0)" style="color:#66513d" opacity="1"><use href="#trooper"/></g><g transform="translate(192 192) rotate(0) scale(1.0)" style="color:#66513d" opacity="1"><use href="#trooper"/><path d="M0-73L-13-100L0-91L13-100Z" fill="url(#ember)" filter="url(#glow)"/></g><g transform="translate(320 192) rotate(0) scale(1.0)" style="color:#66513d" opacity=".52" filter="url(#glow)"><use href="#trooper"/></g><g transform="translate(448 192) rotate(-68) scale(1.0)" style="color:#66513d" opacity="1"><use href="#trooper"/></g><g transform="translate(64 320) rotate(0) scale(1.0)" style="color:#4b584b" opacity="1"><use href="#trooper"/><circle cx="-19" cy="-1" r="8" fill="#46533f" stroke="#071018" stroke-width="3"/></g><g transform="translate(192 320) rotate(0) scale(1.0)" style="color:#4b584b" opacity="1"><use href="#trooper"/><circle cx="-19" cy="-1" r="8" fill="#46533f" stroke="#071018" stroke-width="3"/><path d="M0-73L-13-100L0-91L13-100Z" fill="url(#ember)" filter="url(#glow)"/></g><g transform="translate(320 320) rotate(0) scale(1.0)" style="color:#4b584b" opacity=".52" filter="url(#glow)"><use href="#trooper"/><circle cx="-19" cy="-1" r="8" fill="#46533f" stroke="#071018" stroke-width="3"/></g><g transform="translate(448 320) rotate(-68) scale(1.0)" style="color:#4b584b" opacity="1"><use href="#trooper"/><circle cx="-19" cy="-1" r="8" fill="#46533f" stroke="#071018" stroke-width="3"/></g><g transform="translate(64 448) rotate(0) scale(1.0)" style="color:#374345" opacity="1"><use href="#trooper"/><path d="M0-55V-91" stroke="#42e8dc" stroke-width="3"/></g><g transform="translate(192 448) rotate(0) scale(1.0)" style="color:#374345" opacity="1"><use href="#trooper"/><path d="M0-55V-91" stroke="#42e8dc" stroke-width="3"/><path d="M0-73L-13-100L0-91L13-100Z" fill="url(#ember)" filter="url(#glow)"/></g><g transform="translate(320 448) rotate(0) scale(1.0)" style="color:#374345" opacity=".52" filter="url(#glow)"><use href="#trooper"/><path d="M0-55V-91" stroke="#42e8dc" stroke-width="3"/></g><g transform="translate(448 448) rotate(-68) scale(1.0)" style="color:#374345" opacity="1"><use href="#trooper"/><path d="M0-55V-91" stroke="#42e8dc" stroke-width="3"/></g><g transform="translate(64 576) rotate(0) scale(1.0)" style="color:#596970" opacity="1"><use href="#trooper"/><use href="#shield"/></g><g transform="translate(192 576) rotate(0) scale(1.0)" style="color:#596970" opacity="1"><use href="#trooper"/><use href="#shield"/><path d="M0-73L-13-100L0-91L13-100Z" fill="url(#ember)" filter="url(#glow)"/></g><g transform="translate(320 576) rotate(0) scale(1.0)" style="color:#596970" opacity=".52" filter="url(#glow)"><use href="#trooper"/><use href="#shield"/></g><g transform="translate(448 576) rotate(-68) scale(1.0)" style="color:#596970" opacity="1"><use href="#trooper"/><use href="#shield"/></g><g transform="translate(64 704) rotate(0) scale(1.0)" style="color:#665945" opacity="1"><use href="#trooper"/><use href="#heavy"/></g><g transform="translate(192 704) rotate(0) scale(1.0)" style="color:#665945" opacity="1"><use href="#trooper"/><use href="#heavy"/><path d="M0-73L-13-100L0-91L13-100Z" fill="url(#ember)" filter="url(#glow)"/></g><g transform="translate(320 704) rotate(0) scale(1.0)" style="color:#665945" opacity=".52" filter="url(#glow)"><use href="#trooper"/><use href="#heavy"/></g><g transform="translate(448 704) rotate(-68) scale(1.0)" style="color:#665945" opacity="1"><use href="#trooper"/><use href="#heavy"/></g><g transform="translate(64 832) rotate(0) scale(1.0)" style="" opacity="1"><use href="#drone"/></g><g transform="translate(192 832) rotate(0) scale(1.0)" style="" opacity="1"><use href="#drone"/><path d="M0-73L-13-100L0-91L13-100Z" fill="url(#ember)" filter="url(#glow)"/></g><g transform="translate(320 832) rotate(0) scale(1.0)" style="" opacity=".52" filter="url(#glow)"><use href="#drone"/></g><g transform="translate(448 832) rotate(-68) scale(1.0)" style="" opacity="1"><use href="#drone"/></g><g transform="translate(64 960) rotate(0) scale(1.0)" style="color:#65513e" opacity="1"><use href="#trooper"/><use href="#heavy"/><path d="M16-16L34-63" stroke="#687276" stroke-width="11"/></g><g transform="translate(192 960) rotate(0) scale(1.0)" style="color:#65513e" opacity="1"><use href="#trooper"/><use href="#heavy"/><path d="M16-16L34-63" stroke="#687276" stroke-width="11"/><path d="M0-73L-13-100L0-91L13-100Z" fill="url(#ember)" filter="url(#glow)"/></g><g transform="translate(320 960) rotate(0) scale(1.0)" style="color:#65513e" opacity=".52" filter="url(#glow)"><use href="#trooper"/><use href="#heavy"/><path d="M16-16L34-63" stroke="#687276" stroke-width="11"/></g><g transform="translate(448 960) rotate(-68) scale(1.0)" style="color:#65513e" opacity="1"><use href="#trooper"/><use href="#heavy"/><path d="M16-16L34-63" stroke="#687276" stroke-width="11"/></g><g transform="translate(64 1088) rotate(0) scale(1.0)" style="color:#d8d4c9" opacity="1"><use href="#trooper"/><use href="#medic"/></g><g transform="translate(192 1088) rotate(0) scale(1.0)" style="color:#d8d4c9" opacity="1"><use href="#trooper"/><use href="#medic"/><path d="M0-73L-13-100L0-91L13-100Z" fill="url(#ember)" filter="url(#glow)"/></g><g transform="translate(320 1088) rotate(0) scale(1.0)" style="color:#d8d4c9" opacity=".52" filter="url(#glow)"><use href="#trooper"/><use href="#medic"/></g><g transform="translate(448 1088) rotate(-68) scale(1.0)" style="color:#d8d4c9" opacity="1"><use href="#trooper"/><use href="#medic"/></g><g transform="translate(64 1216) rotate(0) scale(1.0)" style="color:#344039" opacity="1"><use href="#trooper"/><use href="#hunter"/></g><g transform="translate(192 1216) rotate(0) scale(1.0)" style="color:#344039" opacity="1"><use href="#trooper"/><use href="#hunter"/><path d="M0-73L-13-100L0-91L13-100Z" fill="url(#ember)" filter="url(#glow)"/></g><g transform="translate(320 1216) rotate(0) scale(1.0)" style="color:#344039" opacity=".52" filter="url(#glow)"><use href="#trooper"/><use href="#hunter"/></g><g transform="translate(448 1216) rotate(-68) scale(1.0)" style="color:#344039" opacity="1"><use href="#trooper"/><use href="#hunter"/></g><g transform="translate(64 1344) rotate(0) scale(1.14)" style="color:#82583d" opacity="1"><use href="#trooper"/><use href="#heavy"/><circle r="18" fill="url(#core)" stroke="#ffd45a" stroke-width="4" filter="url(#glow)"/></g><g transform="translate(192 1344) rotate(0) scale(1.14)" style="color:#82583d" opacity="1"><use href="#trooper"/><use href="#heavy"/><circle r="18" fill="url(#core)" stroke="#ffd45a" stroke-width="4" filter="url(#glow)"/><path d="M0-73L-13-100L0-91L13-100Z" fill="url(#ember)" filter="url(#glow)"/></g><g transform="translate(320 1344) rotate(0) scale(1.14)" style="color:#82583d" opacity=".52" filter="url(#glow)"><use href="#trooper"/><use href="#heavy"/><circle r="18" fill="url(#core)" stroke="#ffd45a" stroke-width="4" filter="url(#glow)"/></g><g transform="translate(448 1344) rotate(-68) scale(1.14)" style="color:#82583d" opacity="1"><use href="#trooper"/><use href="#heavy"/><circle r="18" fill="url(#core)" stroke="#ffd45a" stroke-width="4" filter="url(#glow)"/></g></svg>