<svg xmlns="http://www.w3.org/2000/svg" width="672" height="224" viewBox="0 0 672 224"><defs>
    <filter id="shadow" x="-50%" y="-50%" width="200%" height="200%"><feDropShadow dx="0" dy="7" stdDeviation="5" flood-color="#000" flood-opacity=".65"/></filter>
    <filter id="glow" x="-100%" y="-100%" width="300%" height="300%"><feGaussianBlur stdDeviation="4" result="b"/><feMerge><feMergeNode in="b"/><feMergeNode in="SourceGraphic"/></feMerge></filter>
    <linearGradient id="copper" x1="0" y1="0" x2="1" y2="1"><stop stop-color="#ffb24a"/><stop offset=".55" stop-color="#ff6b2c"/><stop offset="1" stop-color="#b92c1f"/></linearGradient>
    <linearGradient id="cyanG" x1="0" y1="0" x2="1" y2="1"><stop stop-color="#b6fff6"/><stop offset=".45" stop-color="#42e8dc"/><stop offset="1" stop-color="#167d8a"/></linearGradient>
    <linearGradient id="steelG" x1="0" y1="0" x2="1" y2="1"><stop stop-color="#9eb6bc"/><stop offset=".5" stop-color="#415862"/><stop offset="1" stop-color="#18262d"/></linearGradient>
    <linearGradient id="sandG" x1="0" y1="0" x2="0" y2="1"><stop stop-color="#f0c77b"/><stop offset=".5" stop-color="#d58d4c"/><stop offset="1" stop-color="#704238"/></linearGradient>
    <radialGradient id="blast"><stop stop-color="#fffbd0"/><stop offset=".25" stop-color="#ffd45a"/><stop offset=".58" stop-color="#ff6b2c"/><stop offset="1" stop-color="#541b24" stop-opacity="0"/></radialGradient>
    <pattern id="halftone" width="12" height="12" patternUnits="userSpaceOnUse"><circle cx="2" cy="2" r="1.6" fill="#071018" opacity=".18"/></pattern>
    <pattern id="grid" width="28" height="28" patternUnits="userSpaceOnUse"><path d="M28 0H0V28" fill="none" stroke="#42e8dc" stroke-opacity=".08" stroke-width="1"/></pattern>
    </defs><g transform="translate(56 56)"><rect x="-43" y="-38" width="86" height="76" rx="16" fill="#09151b" stroke="#ff6b2c" stroke-width="4"/><path d="M-35-29H35" stroke="#ffffff" opacity=".12"/><path d="M-10-25H10V-10H25V10H10V25H-10V10H-25V-10H-10Z" fill="#ff5d55"/></g><g transform="translate(168 56)"><rect x="-43" y="-38" width="86" height="76" rx="16" fill="#09151b" stroke="#ff6b2c" stroke-width="4"/><path d="M-35-29H35" stroke="#ffffff" opacity=".12"/><path d="M0-28L28-15 22 15 0 31-22 15-28-15Z" fill="url(#cyanG)" stroke="#d8ffff" stroke-width="3"/></g><g transform="translate(280 56)"><rect x="-43" y="-38" width="86" height="76" rx="16" fill="#09151b" stroke="#ff6b2c" stroke-width="4"/><path d="M-35-29H35" stroke="#ffffff" opacity=".12"/><g fill="#ffd45a" stroke="#071018" stroke-width="3"><rect x="-28" y="-22" width="15" height="48" rx="5"/><rect x="-7" y="-26" width="15" height="52" rx="5"/><rect x="14" y="-18" width="15" height="44" rx="5"/></g></g><g transform="translate(392 56)"><rect x="-43" y="-38" width="86" height="76" rx="16" fill="#09151b" stroke="#ff6b2c" stroke-width="4"/><path d="M-35-29H35" stroke="#ffffff" opacity=".12"/><circle cy="7" r="23" fill="#84945c" stroke="#071018" stroke-width="5"/><rect x="-6" y="-28" width="12" height="16" rx="3" fill="#b5c581"/><path d="M3-25Q22-29 20-10" fill="none" stroke="#071018" stroke-width="5"/></g><g transform="translate(504 56)"><rect x="-43" y="-38" width="86" height="76" rx="16" fill="#09151b" stroke="#ff6b2c" stroke-width="4"/><path d="M-35-29H35" stroke="#ffffff" opacity=".12"/><path d="M-28-22H22L30-10V28H-28Z" fill="#263c46" stroke="#071018" stroke-width="5"/><path d="M-17-8H17M-17 4H9M-17 16H20" stroke="#42e8dc" stroke-width="4"/></g><g transform="translate(616 56)"><rect x="-43" y="-38" width="86" height="76" rx="16" fill="#09151b" stroke="#ff6b2c" stroke-width="4"/><path d="M-35-29H35" stroke="#ffffff" opacity=".12"/><rect x="-31" y="-27" width="62" height="54" rx="10" fill="#25363c" stroke="#071018" stroke-width="5"/><circle r="18" fill="#ffd45a" filter="url(#glow)"/><path d="M0-13V13M-13 0H13" stroke="#071018" stroke-width="6"/></g><g transform="translate(56 168)"><rect x="-43" y="-38" width="86" height="76" rx="16" fill="#09151b" stroke="#42e8dc" stroke-width="4"/><path d="M-35-29H35" stroke="#ffffff" opacity=".12"/><g rotate="-18"><rect x="-34.0" y="-7" width="68" height="14" rx="5" fill="#87958d" stroke="#071018" stroke-width="4"/><rect x="-7" y="4" width="16" height="24" rx="3" fill="#263139" stroke="#071018" stroke-width="4"/><path d="M24.0-10V10" stroke="#f8f2df" stroke-width="3"/></g></g><g transform="translate(168 168)"><rect x="-43" y="-38" width="86" height="76" rx="16" fill="#09151b" stroke="#42e8dc" stroke-width="4"/><path d="M-35-29H35" stroke="#ffffff" opacity=".12"/><g rotate="-18"><rect x="-29.0" y="-7" width="58" height="14" rx="5" fill="#79d9df" stroke="#071018" stroke-width="4"/><rect x="-7" y="4" width="16" height="24" rx="3" fill="#263139" stroke="#071018" stroke-width="4"/><path d="M19.0-10V10" stroke="#f8f2df" stroke-width="3"/></g></g><g transform="translate(280 168)"><rect x="-43" y="-38" width="86" height="76" rx="16" fill="#09151b" stroke="#42e8dc" stroke-width="4"/><path d="M-35-29H35" stroke="#ffffff" opacity=".12"/><g rotate="-18"><rect x="-36.0" y="-7" width="72" height="14" rx="5" fill="#d6a65f" stroke="#071018" stroke-width="4"/><rect x="-7" y="4" width="16" height="24" rx="3" fill="#263139" stroke="#071018" stroke-width="4"/><path d="M26.0-10V10" stroke="#f8f2df" stroke-width="3"/></g></g><g transform="translate(392 168)"><rect x="-43" y="-38" width="86" height="76" rx="16" fill="#09151b" stroke="#42e8dc" stroke-width="4"/><path d="M-35-29H35" stroke="#ffffff" opacity=".12"/><g rotate="-18"><rect x="-38.0" y="-7" width="76" height="14" rx="5" fill="#8b8f86" stroke="#071018" stroke-width="4"/><rect x="-7" y="4" width="16" height="24" rx="3" fill="#263139" stroke="#071018" stroke-width="4"/><path d="M28.0-10V10" stroke="#f8f2df" stroke-width="3"/></g></g><g transform="translate(504 168)"><rect x="-43" y="-38" width="86" height="76" rx="16" fill="#09151b" stroke="#42e8dc" stroke-width="4"/><path d="M-35-29H35" stroke="#ffffff" opacity=".12"/><g rotate="-18"><rect x="-34.0" y="-7" width="68" height="14" rx="5" fill="#c66a3f" stroke="#071018" stroke-width="4"/><rect x="-7" y="4" width="16" height="24" rx="3" fill="#263139" stroke="#071018" stroke-width="4"/><path d="M24.0-10V10" stroke="#f8f2df" stroke-width="3"/></g></g><g transform="translate(616 168)"><rect x="-43" y="-38" width="86" height="76" rx="16" fill="#09151b" stroke="#42e8dc" stroke-width="4"/><path d="M-35-29H35" stroke="#ffffff" opacity=".12"/><g rotate="-18"><rect x="-32.0" y="-7" width="64" height="14" rx="5" fill="#65f0e4" stroke="#071018" stroke-width="4"/><rect x="-7" y="4" width="16" height="24" rx="3" fill="#263139" stroke="#071018" stroke-width="4"/><path d="M22.0-10V10" stroke="#f8f2df" stroke-width="3"/></g></g></svg>