<svg xmlns="http://www.w3.org/2000/svg" width="672" height="224" viewBox="0 0 672 224"><title>Pickup and weapon atlas</title><desc>Twelve fixed 112px cells: six pickups and six weapon silhouettes.</desc><metadata>Black Horizon: Cinder Protocol production atlas v3. Fixed cell grid; no labels embedded in cells.</metadata><defs><filter id="shadow" x="-40%" y="-40%" width="180%" height="180%"><feDropShadow dx="0" dy="4" stdDeviation="3" flood-color="#000" flood-opacity=".55"/></filter><filter id="glow" x="-80%" y="-80%" width="260%" height="260%"><feGaussianBlur stdDeviation="3" result="b"/><feMerge><feMergeNode in="b"/><feMergeNode in="SourceGraphic"/></feMerge></filter><linearGradient id="steel" x1="0" y1="0" x2="1" y2="1"><stop stop-color="#84939a"/><stop offset=".45" stop-color="#485860"/><stop offset="1" stop-color="#17242b"/></linearGradient><linearGradient id="cloth" x1="0" y1="0" x2="1" y2="1"><stop stop-color="#756b4a"/><stop offset="1" stop-color="#313a31"/></linearGradient><linearGradient id="ember" x1="0" y1="0" x2="1" y2="1"><stop stop-color="#fff2a6"/><stop offset=".42" stop-color="#ff9a38"/><stop offset="1" stop-color="#c83026"/></linearGradient><radialGradient id="core"><stop stop-color="#fff6b0"/><stop offset=".35" stop-color="#ff9a2f"/><stop offset="1" stop-color="#8f1d17"/></radialGradient><g id="card" filter="url(#shadow)" stroke="#071018" stroke-linejoin="round"><ellipse cy="34" rx="33" ry="9" fill="#000" opacity=".3" stroke="none"/></g><g id="rifle" stroke="#071018" stroke-linecap="round" stroke-linejoin="round"><path d="M-38 3L34-16" stroke="#071018" stroke-width="16"/><path d="M-38 3L34-16" stroke="url(#steel)" stroke-width="10"/><path d="M-3-3L7 20" stroke="#26333a" stroke-width="10"/><path d="M26-14L43-18" stroke="#59686e" stroke-width="7"/></g></defs><g transform="translate(56 56)"><use href="#card"/><rect x="-27" y="-27" width="54" height="54" rx="10" fill="#eee8dc" stroke="#071018" stroke-width="5"/><path d="M0-18V18M-18 0H18" stroke="#ef4d45" stroke-width="10"/></g><g transform="translate(168 56)"><use href="#card"/><path d="M0-37L31-22L26 18L0 39L-26 18L-31-22Z" fill="url(#steel)" stroke="#071018" stroke-width="5"/><path d="M0-24L18-15L15 10L0 23L-15 10L-18-15Z" fill="none" stroke="#42e8dc" stroke-width="3"/></g><g transform="translate(280 56)"><use href="#card"/><rect x="-34" y="-23" width="68" height="49" rx="7" fill="#303b40" stroke="#071018" stroke-width="5"/><path d="M-23-12V13M-11-12V13M1-12V13M13-12V13M25-12V13" stroke="#ffd45a" stroke-width="6"/></g><g transform="translate(392 56)"><use href="#card"/><circle r="25" fill="#44513e" stroke="#071018" stroke-width="5"/><rect x="-8" y="-36" width="16" height="17" rx="3" fill="#68736a" stroke="#071018" stroke-width="4"/><path d="M2-37Q26-40 29-21" fill="none" stroke="#ffd45a" stroke-width="5"/></g><g transform="translate(504 56)"><use href="#card"/><rect x="-29" y="-36" width="58" height="72" rx="4" fill="#bea16f" stroke="#071018" stroke-width="5"/><path d="M-17-18H17M-17-6H17M-17 6H17M-17 18H10" stroke="#473c2f" stroke-width="3"/><rect x="5" y="-30" width="18" height="12" rx="2" fill="#c84038"/></g><g transform="translate(616 56)"><use href="#card"/><rect x="-34" y="-34" width="68" height="68" rx="9" fill="#253138" stroke="#071018" stroke-width="5"/><rect x="-23" y="-23" width="46" height="46" rx="6" fill="#54271e" stroke="#ff7a2f" stroke-width="4"/><circle r="14" fill="url(#core)" filter="url(#glow)"/></g><g transform="translate(56 168)"><use href="#card"/><use href="#rifle"/></g><g transform="translate(168 168)"><use href="#card"/><use href="#rifle"/></g><g transform="translate(280 168)"><use href="#card"/><use href="#rifle"/><path d="M23-14L46-20" stroke="#7e898c" stroke-width="12"/></g><g transform="translate(392 168)"><use href="#card"/><use href="#rifle"/><rect x="-2" y="10" width="26" height="26" rx="4" fill="#394347" stroke="#071018" stroke-width="4"/><path d="M2 17H20" stroke="#ffd45a" stroke-width="5" stroke-dasharray="3 4"/></g><g transform="translate(504 168)"><use href="#card"/><use href="#rifle"/><path d="M-35 0L35-17" stroke="#4d5d62" stroke-width="18"/></g><g transform="translate(616 168)"><use href="#card"/><use href="#rifle"/><circle cx="-4" cy="-2" r="7" fill="#ff8e32"/><circle cx="10" cy="-6" r="7" fill="#ffb244"/><circle cx="24" cy="-10" r="7" fill="#ffd45a"/></g></svg>