<svg xmlns="http://www.w3.org/2000/svg" width="1024" height="512" viewBox="0 0 1024 512"><defs><filter id="s"><feDropShadow dx="0" dy="5" stdDeviation="3" flood-opacity=".6"/></filter><filter id="g"><feGaussianBlur stdDeviation="3" result="b"/><feMerge><feMergeNode in="b"/><feMergeNode in="SourceGraphic"/></feMerge></filter><linearGradient id="m" x2="1" y2="1"><stop stop-color="#8da59d"/><stop offset="1" stop-color="#263b3b"/></linearGradient><linearGradient id="o" x2="1" y2="1"><stop stop-color="#ffd45a"/><stop offset=".55" stop-color="#ff6b2c"/><stop offset="1" stop-color="#8f2630"/></linearGradient></defs><defs><g id="P" filter="url(#s)" stroke="#071018" stroke-linejoin="round"><ellipse cy="35" rx="31" ry="10" fill="#000" opacity=".28" stroke="none"/><path d="M-13 14l-8 33M13 14l8 33" stroke="#14232a" stroke-width="13" stroke-linecap="round"/><path d="M-12 12l-7 29M12 12l7 29" stroke="#55705f" stroke-width="8" stroke-linecap="round"/><rect x="-25" y="-25" width="50" height="48" rx="13" fill="url(#m)" stroke-width="6"/><path d="M-22-10h44v24h-44z" fill="#263b3b" stroke="none"/><circle cy="-40" r="16" fill="#c98e67" stroke-width="5"/><path d="M-18-45Q0-65 19-45v10Q0-45-18-35z" fill="#17242b" stroke="none"/><path d="M-12-41h10m5 0h10" stroke="#42e8dc" stroke-width="4" stroke-linecap="round"/><path d="M-20-8L-8-31M20-8L8-31" stroke="#c98e67" stroke-width="9" stroke-linecap="round"/><path d="M0-23v-43" stroke="#131b20" stroke-width="10"/><rect x="-7" y="-74" width="14" height="49" rx="3" fill="#26333a" stroke-width="4"/><path d="M17-51q22-10 30 10" fill="none" stroke="#17242b" stroke-width="8" stroke-linecap="round"/><path d="M-17 5h12m10 0h12" stroke="#42e8dc" stroke-width="3"/></g></defs><g transform="translate(64 69) rotate(0)"><use href="#P"/><path d="M-24 18q-7.5 18 0 30M24 18q7.5 18 0 30" fill="none" stroke="#42e8dc" stroke-width="2" opacity=".28"/></g><g transform="translate(192 71) rotate(0)"><use href="#P"/><path d="M-24 18q-2.5 18 0 30M24 18q2.5 18 0 30" fill="none" stroke="#42e8dc" stroke-width="2" opacity=".28"/></g><g transform="translate(320 73) rotate(0)"><use href="#P"/><path d="M-24 18q2.5 18 0 30M24 18q-2.5 18 0 30" fill="none" stroke="#42e8dc" stroke-width="2" opacity=".28"/></g><g transform="translate(448 71) rotate(0)"><use href="#P"/><path d="M-24 18q7.5 18 0 30M24 18q-7.5 18 0 30" fill="none" stroke="#42e8dc" stroke-width="2" opacity=".28"/></g><g transform="translate(576 69) rotate(0)"><use href="#P"/><path d="M-24 18q-7.5 18 0 30M24 18q7.5 18 0 30" fill="none" stroke="#42e8dc" stroke-width="2" opacity=".28"/></g><g transform="translate(704 67) rotate(0)"><use href="#P"/><path d="M-24 18q-2.5 18 0 30M24 18q2.5 18 0 30" fill="none" stroke="#42e8dc" stroke-width="2" opacity=".28"/></g><g transform="translate(832 65) rotate(0)"><use href="#P"/><path d="M-24 18q2.5 18 0 30M24 18q-2.5 18 0 30" fill="none" stroke="#42e8dc" stroke-width="2" opacity=".28"/></g><g transform="translate(960 67) rotate(0)"><use href="#P"/><path d="M-24 18q7.5 18 0 30M24 18q-7.5 18 0 30" fill="none" stroke="#42e8dc" stroke-width="2" opacity=".28"/></g><g transform="translate(64 197) rotate(90)"><use href="#P"/><path d="M-24 18q-7.5 18 0 30M24 18q7.5 18 0 30" fill="none" stroke="#42e8dc" stroke-width="2" opacity=".28"/></g><g transform="translate(192 199) rotate(90)"><use href="#P"/><path d="M-24 18q-2.5 18 0 30M24 18q2.5 18 0 30" fill="none" stroke="#42e8dc" stroke-width="2" opacity=".28"/></g><g transform="translate(320 201) rotate(90)"><use href="#P"/><path d="M-24 18q2.5 18 0 30M24 18q-2.5 18 0 30" fill="none" stroke="#42e8dc" stroke-width="2" opacity=".28"/></g><g transform="translate(448 199) rotate(90)"><use href="#P"/><path d="M-24 18q7.5 18 0 30M24 18q-7.5 18 0 30" fill="none" stroke="#42e8dc" stroke-width="2" opacity=".28"/></g><g transform="translate(576 197) rotate(90)"><use href="#P"/><path d="M-24 18q-7.5 18 0 30M24 18q7.5 18 0 30" fill="none" stroke="#42e8dc" stroke-width="2" opacity=".28"/></g><g transform="translate(704 195) rotate(90)"><use href="#P"/><path d="M-24 18q-2.5 18 0 30M24 18q2.5 18 0 30" fill="none" stroke="#42e8dc" stroke-width="2" opacity=".28"/></g><g transform="translate(832 193) rotate(90)"><use href="#P"/><path d="M-24 18q2.5 18 0 30M24 18q-2.5 18 0 30" fill="none" stroke="#42e8dc" stroke-width="2" opacity=".28"/></g><g transform="translate(960 195) rotate(90)"><use href="#P"/><path d="M-24 18q7.5 18 0 30M24 18q-7.5 18 0 30" fill="none" stroke="#42e8dc" stroke-width="2" opacity=".28"/></g><g transform="translate(64 325) rotate(180)"><use href="#P"/><path d="M-24 18q-7.5 18 0 30M24 18q7.5 18 0 30" fill="none" stroke="#42e8dc" stroke-width="2" opacity=".28"/></g><g transform="translate(192 327) rotate(180)"><use href="#P"/><path d="M-24 18q-2.5 18 0 30M24 18q2.5 18 0 30" fill="none" stroke="#42e8dc" stroke-width="2" opacity=".28"/></g><g transform="translate(320 329) rotate(180)"><use href="#P"/><path d="M-24 18q2.5 18 0 30M24 18q-2.5 18 0 30" fill="none" stroke="#42e8dc" stroke-width="2" opacity=".28"/></g><g transform="translate(448 327) rotate(180)"><use href="#P"/><path d="M-24 18q7.5 18 0 30M24 18q-7.5 18 0 30" fill="none" stroke="#42e8dc" stroke-width="2" opacity=".28"/></g><g transform="translate(576 325) rotate(180)"><use href="#P"/><path d="M-24 18q-7.5 18 0 30M24 18q7.5 18 0 30" fill="none" stroke="#42e8dc" stroke-width="2" opacity=".28"/></g><g transform="translate(704 323) rotate(180)"><use href="#P"/><path d="M-24 18q-2.5 18 0 30M24 18q2.5 18 0 30" fill="none" stroke="#42e8dc" stroke-width="2" opacity=".28"/></g><g transform="translate(832 321) rotate(180)"><use href="#P"/><path d="M-24 18q2.5 18 0 30M24 18q-2.5 18 0 30" fill="none" stroke="#42e8dc" stroke-width="2" opacity=".28"/></g><g transform="translate(960 323) rotate(180)"><use href="#P"/><path d="M-24 18q7.5 18 0 30M24 18q-7.5 18 0 30" fill="none" stroke="#42e8dc" stroke-width="2" opacity=".28"/></g><g transform="translate(64 453) rotate(270)"><use href="#P"/><path d="M-24 18q-7.5 18 0 30M24 18q7.5 18 0 30" fill="none" stroke="#42e8dc" stroke-width="2" opacity=".28"/></g><g transform="translate(192 455) rotate(270)"><use href="#P"/><path d="M-24 18q-2.5 18 0 30M24 18q2.5 18 0 30" fill="none" stroke="#42e8dc" stroke-width="2" opacity=".28"/></g><g transform="translate(320 457) rotate(270)"><use href="#P"/><path d="M-24 18q2.5 18 0 30M24 18q-2.5 18 0 30" fill="none" stroke="#42e8dc" stroke-width="2" opacity=".28"/></g><g transform="translate(448 455) rotate(270)"><use href="#P"/><path d="M-24 18q7.5 18 0 30M24 18q-7.5 18 0 30" fill="none" stroke="#42e8dc" stroke-width="2" opacity=".28"/></g><g transform="translate(576 453) rotate(270)"><use href="#P"/><path d="M-24 18q-7.5 18 0 30M24 18q7.5 18 0 30" fill="none" stroke="#42e8dc" stroke-width="2" opacity=".28"/></g><g transform="translate(704 451) rotate(270)"><use href="#P"/><path d="M-24 18q-2.5 18 0 30M24 18q2.5 18 0 30" fill="none" stroke="#42e8dc" stroke-width="2" opacity=".28"/></g><g transform="translate(832 449) rotate(270)"><use href="#P"/><path d="M-24 18q2.5 18 0 30M24 18q-2.5 18 0 30" fill="none" stroke="#42e8dc" stroke-width="2" opacity=".28"/></g><g transform="translate(960 451) rotate(270)"><use href="#P"/><path d="M-24 18q7.5 18 0 30M24 18q-7.5 18 0 30" fill="none" stroke="#42e8dc" stroke-width="2" opacity=".28"/></g></svg>