<svg xmlns="http://www.w3.org/2000/svg" width="1024" height="512" viewBox="0 0 1024 512"><title>Player animation atlas</title><desc>32 runtime-addressable frames: four directional rows, eight locomotion frames.</desc><metadata>Black Horizon: Cinder Protocol production atlas v3. Fixed cell grid; no labels embedded in cells.</metadata><defs><filter id="shadow" x="-40%" y="-40%" width="180%" height="180%"><feDropShadow dx="0" dy="4" stdDeviation="3" flood-color="#000" flood-opacity=".55"/></filter><filter id="glow" x="-80%" y="-80%" width="260%" height="260%"><feGaussianBlur stdDeviation="3" result="b"/><feMerge><feMergeNode in="b"/><feMergeNode in="SourceGraphic"/></feMerge></filter><linearGradient id="steel" x1="0" y1="0" x2="1" y2="1"><stop stop-color="#84939a"/><stop offset=".45" stop-color="#485860"/><stop offset="1" stop-color="#17242b"/></linearGradient><linearGradient id="cloth" x1="0" y1="0" x2="1" y2="1"><stop stop-color="#756b4a"/><stop offset="1" stop-color="#313a31"/></linearGradient><linearGradient id="ember" x1="0" y1="0" x2="1" y2="1"><stop stop-color="#fff2a6"/><stop offset=".42" stop-color="#ff9a38"/><stop offset="1" stop-color="#c83026"/></linearGradient><radialGradient id="core"><stop stop-color="#fff6b0"/><stop offset=".35" stop-color="#ff9a2f"/><stop offset="1" stop-color="#8f1d17"/></radialGradient><g id="operator" filter="url(#shadow)" stroke="#071018" stroke-linecap="round" stroke-linejoin="round"><ellipse cx="0" cy="35" rx="30" ry="10" fill="#000" opacity=".28" stroke="none"/><path d="M-13 12L-20 43M13 12L20 43" stroke="#19252b" stroke-width="14"/><path d="M-13 12L-18 40M13 12L18 40" stroke="#646957" stroke-width="8"/><path d="M-24-22L-32 2M24-22L32 2" stroke="#bc7a54" stroke-width="9"/><path d="M-24-22L-32 2M24-22L32 2" stroke="#071018" stroke-width="2"/><path d="M-25-25Q0-38 25-25L21 19Q0 29-21 19Z" fill="url(#cloth)" stroke-width="5"/><path d="M-18-14H18V10H-18Z" fill="#27353a" stroke="none"/><path d="M-16-10H16M-12-1H12M-8 8H8" stroke="#42e8dc" stroke-width="2" opacity=".55"/><circle cx="0" cy="-39" r="16" fill="#b97957" stroke-width="5"/><path d="M-18-44Q0-64 19-44V-34Q0-45-18-34Z" fill="#1a2025" stroke="none"/><path d="M-12-42H-2M4-42H14" stroke="#f4ead6" stroke-width="3"/><path d="M0-22V-73" stroke="#071018" stroke-width="11"/><rect x="-6" y="-75" width="12" height="54" rx="3" fill="url(#steel)" stroke-width="4"/><path d="M-4-58H18L28-50" fill="none" stroke="#59676c" stroke-width="5"/><rect x="-12" y="1" width="9" height="14" rx="2" fill="#17242b" stroke-width="2"/><rect x="3" y="1" width="9" height="14" rx="2" fill="#17242b" stroke-width="2"/><path d="M-24-5L-34-13M24-5L34-13" stroke="#ff7a2f" stroke-width="3"/></g></defs><g transform="translate(64 64.0) rotate(0)"><use href="#operator"/><path d="M-20 19q-0.0 13-1 27M20 19q0.0 13 1 27" fill="none" stroke="#42e8dc" stroke-width="2" opacity=".34"/></g><g transform="translate(192 65.41) rotate(0)"><use href="#operator"/><path d="M-20 19q-4.95 13-1 27M20 19q4.95 13 1 27" fill="none" stroke="#42e8dc" stroke-width="2" opacity=".34"/></g><g transform="translate(320 66.0) rotate(0)"><use href="#operator"/><path d="M-20 19q-7.0 13-1 27M20 19q7.0 13 1 27" fill="none" stroke="#42e8dc" stroke-width="2" opacity=".34"/></g><g transform="translate(448 65.41) rotate(0)"><use href="#operator"/><path d="M-20 19q-4.95 13-1 27M20 19q4.95 13 1 27" fill="none" stroke="#42e8dc" stroke-width="2" opacity=".34"/></g><g transform="translate(576 64.0) rotate(0)"><use href="#operator"/><path d="M-20 19q-0.0 13-1 27M20 19q0.0 13 1 27" fill="none" stroke="#42e8dc" stroke-width="2" opacity=".34"/></g><g transform="translate(704 62.59) rotate(0)"><use href="#operator"/><path d="M-20 19q4.95 13-1 27M20 19q-4.95 13 1 27" fill="none" stroke="#42e8dc" stroke-width="2" opacity=".34"/></g><g transform="translate(832 62.0) rotate(0)"><use href="#operator"/><path d="M-20 19q7.0 13-1 27M20 19q-7.0 13 1 27" fill="none" stroke="#42e8dc" stroke-width="2" opacity=".34"/></g><g transform="translate(960 62.59) rotate(0)"><use href="#operator"/><path d="M-20 19q4.95 13-1 27M20 19q-4.95 13 1 27" fill="none" stroke="#42e8dc" stroke-width="2" opacity=".34"/></g><g transform="translate(64 192.0) rotate(90)"><use href="#operator"/><path d="M-20 19q-0.0 13-1 27M20 19q0.0 13 1 27" fill="none" stroke="#42e8dc" stroke-width="2" opacity=".34"/></g><g transform="translate(192 193.41) rotate(90)"><use href="#operator"/><path d="M-20 19q-4.95 13-1 27M20 19q4.95 13 1 27" fill="none" stroke="#42e8dc" stroke-width="2" opacity=".34"/></g><g transform="translate(320 194.0) rotate(90)"><use href="#operator"/><path d="M-20 19q-7.0 13-1 27M20 19q7.0 13 1 27" fill="none" stroke="#42e8dc" stroke-width="2" opacity=".34"/></g><g transform="translate(448 193.41) rotate(90)"><use href="#operator"/><path d="M-20 19q-4.95 13-1 27M20 19q4.95 13 1 27" fill="none" stroke="#42e8dc" stroke-width="2" opacity=".34"/></g><g transform="translate(576 192.0) rotate(90)"><use href="#operator"/><path d="M-20 19q-0.0 13-1 27M20 19q0.0 13 1 27" fill="none" stroke="#42e8dc" stroke-width="2" opacity=".34"/></g><g transform="translate(704 190.59) rotate(90)"><use href="#operator"/><path d="M-20 19q4.95 13-1 27M20 19q-4.95 13 1 27" fill="none" stroke="#42e8dc" stroke-width="2" opacity=".34"/></g><g transform="translate(832 190.0) rotate(90)"><use href="#operator"/><path d="M-20 19q7.0 13-1 27M20 19q-7.0 13 1 27" fill="none" stroke="#42e8dc" stroke-width="2" opacity=".34"/></g><g transform="translate(960 190.59) rotate(90)"><use href="#operator"/><path d="M-20 19q4.95 13-1 27M20 19q-4.95 13 1 27" fill="none" stroke="#42e8dc" stroke-width="2" opacity=".34"/></g><g transform="translate(64 320.0) rotate(180)"><use href="#operator"/><path d="M-20 19q-0.0 13-1 27M20 19q0.0 13 1 27" fill="none" stroke="#42e8dc" stroke-width="2" opacity=".34"/></g><g transform="translate(192 321.41) rotate(180)"><use href="#operator"/><path d="M-20 19q-4.95 13-1 27M20 19q4.95 13 1 27" fill="none" stroke="#42e8dc" stroke-width="2" opacity=".34"/></g><g transform="translate(320 322.0) rotate(180)"><use href="#operator"/><path d="M-20 19q-7.0 13-1 27M20 19q7.0 13 1 27" fill="none" stroke="#42e8dc" stroke-width="2" opacity=".34"/></g><g transform="translate(448 321.41) rotate(180)"><use href="#operator"/><path d="M-20 19q-4.95 13-1 27M20 19q4.95 13 1 27" fill="none" stroke="#42e8dc" stroke-width="2" opacity=".34"/></g><g transform="translate(576 320.0) rotate(180)"><use href="#operator"/><path d="M-20 19q-0.0 13-1 27M20 19q0.0 13 1 27" fill="none" stroke="#42e8dc" stroke-width="2" opacity=".34"/></g><g transform="translate(704 318.59) rotate(180)"><use href="#operator"/><path d="M-20 19q4.95 13-1 27M20 19q-4.95 13 1 27" fill="none" stroke="#42e8dc" stroke-width="2" opacity=".34"/></g><g transform="translate(832 318.0) rotate(180)"><use href="#operator"/><path d="M-20 19q7.0 13-1 27M20 19q-7.0 13 1 27" fill="none" stroke="#42e8dc" stroke-width="2" opacity=".34"/></g><g transform="translate(960 318.59) rotate(180)"><use href="#operator"/><path d="M-20 19q4.95 13-1 27M20 19q-4.95 13 1 27" fill="none" stroke="#42e8dc" stroke-width="2" opacity=".34"/></g><g transform="translate(64 448.0) rotate(270)"><use href="#operator"/><path d="M-20 19q-0.0 13-1 27M20 19q0.0 13 1 27" fill="none" stroke="#42e8dc" stroke-width="2" opacity=".34"/></g><g transform="translate(192 449.41) rotate(270)"><use href="#operator"/><path d="M-20 19q-4.95 13-1 27M20 19q4.95 13 1 27" fill="none" stroke="#42e8dc" stroke-width="2" opacity=".34"/></g><g transform="translate(320 450.0) rotate(270)"><use href="#operator"/><path d="M-20 19q-7.0 13-1 27M20 19q7.0 13 1 27" fill="none" stroke="#42e8dc" stroke-width="2" opacity=".34"/></g><g transform="translate(448 449.41) rotate(270)"><use href="#operator"/><path d="M-20 19q-4.95 13-1 27M20 19q4.95 13 1 27" fill="none" stroke="#42e8dc" stroke-width="2" opacity=".34"/></g><g transform="translate(576 448.0) rotate(270)"><use href="#operator"/><path d="M-20 19q-0.0 13-1 27M20 19q0.0 13 1 27" fill="none" stroke="#42e8dc" stroke-width="2" opacity=".34"/></g><g transform="translate(704 446.59) rotate(270)"><use href="#operator"/><path d="M-20 19q4.95 13-1 27M20 19q-4.95 13 1 27" fill="none" stroke="#42e8dc" stroke-width="2" opacity=".34"/></g><g transform="translate(832 446.0) rotate(270)"><use href="#operator"/><path d="M-20 19q7.0 13-1 27M20 19q-7.0 13 1 27" fill="none" stroke="#42e8dc" stroke-width="2" opacity=".34"/></g><g transform="translate(960 446.59) rotate(270)"><use href="#operator"/><path d="M-20 19q4.95 13-1 27M20 19q-4.95 13 1 27" fill="none" stroke="#42e8dc" stroke-width="2" opacity=".34"/></g></svg>